<?xml version="1.0" encoding="UTF-8"?> <svg xmlns="http://www.w3.org/2000/svg" width="230" height="50.34" viewBox="0 0 230 50.34"><defs><style>.a{fill:#f9c412;}.b{fill:#414142;}</style></defs><path class="a" d="M48.5,15.61,37.42,22.062a12.329,12.329,0,0,1,.421,3.226A12.623,12.623,0,1,1,25.218,12.665h0a12.813,12.813,0,0,1,8.275,3.085h.07a6.012,6.012,0,0,0,3.787,1.262,6.285,6.285,0,0,0,6.311-6.259V10.7a6.137,6.137,0,0,0-1.893-4.488h0c-.07-.07-.14-.14-.21-.14-.14-.14-.28-.21-.421-.351a25.169,25.169,0,1,0,9.256,19.495A25.777,25.777,0,0,0,48.5,15.61Z" transform="translate(-0.054 -0.053)"></path><g transform="translate(16.258 19.554)"><path class="a" d="M89.518,99.412a2.461,2.461,0,0,1-1.964,2.454,2.682,2.682,0,0,1,2.314,2.8c0,1.893-1.613,3.085-4.208,3.085H80.332V96.607h5.119C88.046,96.607,89.518,97.729,89.518,99.412Zm-2.524.491c0-.771-.561-1.192-1.543-1.192H83v2.454h2.454C86.363,101.165,86.994,100.674,86.994,99.9Zm.351,4.488c0-.841-.7-1.332-1.893-1.262H83v2.665h2.454C86.643,105.723,87.345,105.232,87.345,104.391Z" transform="translate(-80.332 -96.607)"></path><path class="a" d="M135.642,110.273c-.561,0-.982.21-.982.631,0,1.262,4.558.631,4.488,3.647,0,1.753-1.543,2.665-3.506,2.665a6.04,6.04,0,0,1-3.717-1.192l.771-1.683a5.083,5.083,0,0,0,3.015,1.052c.631,0,1.052-.21,1.052-.7,0-1.4-4.418-.631-4.418-3.647,0-1.753,1.543-2.665,3.366-2.665a6.29,6.29,0,0,1,3.366.982l-.841,1.683A6.757,6.757,0,0,0,135.642,110.273Z" transform="translate(-121.476 -105.996)"></path></g><g transform="translate(63.242 11.209)"><path class="b" d="M323.407,64.891c5.33,0,8.625,2.384,8.625,6.381a5.6,5.6,0,0,1-4.488,5.68,6.163,6.163,0,0,1,5.47,6.452c0,4.418-3.576,7.013-9.327,7.013h-11.36V64.751h11.08ZM316.535,75.48h6.592c2.734,0,4.418-1.262,4.418-3.436s-1.613-3.366-4.418-3.366h-6.592Zm0,11.22h6.592c3.366,0,5.4-1.332,5.4-3.717,0-2.244-2.034-3.647-5.4-3.647h-6.592Z" transform="translate(-312.327 -62.858)"></path><path class="b" d="M441.544,58a2.455,2.455,0,1,1-4.909,0,2.474,2.474,0,0,1,2.454-2.595,2.516,2.516,0,0,1,2.455,2.576Zm-4.558,25.1V63.607h4.208V83.1Z" transform="translate(-411.46 -55.402)"></path><path class="b" d="M500.946,105.11c0,5.891-4.137,9.888-10.168,9.888s-10.168-4-10.168-9.888,4.137-9.888,10.168-9.888S500.946,99.219,500.946,105.11Zm-16.129,0c0,3.787,2.454,6.311,5.961,6.311s5.961-2.595,5.961-6.311-2.454-6.311-5.961-6.311S484.818,101.393,484.818,105.11Z" transform="translate(-446.529 -87.158)"></path><path class="b" d="M611.951,67.333l-1.823,3.787a15.337,15.337,0,0,0-7.5-2.384c-2.524,0-4.208.982-4.208,2.665,0,5.61,13.815,2.595,13.815,11.851,0,4.558-4,7.433-9.677,7.433A15.846,15.846,0,0,1,592.1,86.618L594,82.9a13.783,13.783,0,0,0,8.7,3.717c3.015,0,4.769-1.122,4.769-3.085,0-5.68-13.815-2.524-13.815-11.641,0-4.418,3.787-7.153,9.327-7.153A16.455,16.455,0,0,1,611.951,67.333Z" transform="translate(-535.444 -62.845)"></path><path class="b" d="M747.912,102.727v12.131H743.7V103.919c0-2.945-1.753-4.769-4.628-4.769-3.366.14-5.329,2.665-5.329,6.1v9.607h-4.207v-10.94c0-2.945-1.753-4.769-4.558-4.769-3.366.14-5.4,2.665-5.4,6.1v9.607h-4.208V95.364h4.208v3.787c1.332-2.734,3.857-3.927,7.083-3.927,3.506,0,5.891,1.753,6.8,4.7,1.262-3.226,3.857-4.7,7.432-4.7C745.247,95.224,747.912,98.029,747.912,102.727Z" transform="translate(-633.748 -87.159)"></path><path class="b" d="M909.445,112.477c-1.4,1.753-3.647,2.595-6.452,2.595-4.208,0-6.872-2.595-6.872-6.031,0-3.576,2.665-5.82,7.363-5.891h5.891v-.561c0-2.454-1.543-3.927-4.628-3.927a10.128,10.128,0,0,0-5.75,1.964l-1.753-2.945a14.364,14.364,0,0,1,8.415-2.454c5.049,0,7.854,2.595,7.854,6.872l.07,12.763h-4.137Zm-.07-4.488v-1.823h-5.26c-2.734,0-4,.7-4,2.595,0,1.753,1.4,2.876,3.787,2.876C906.85,111.705,909.164,110.092,909.375,107.989Z" transform="translate(-777.89 -87.162)"></path><path class="b" d="M1014.25,99.219a7.009,7.009,0,0,1,6.732-4v4c-3.927-.21-6.381,2.1-6.732,5.4v10.168h-4.208V95.362h4.208Z" transform="translate(-868.74 -87.158)"></path><path class="b" d="M1084.649,95.922a9.371,9.371,0,0,1-4.769,1.4c-2.945,0-5.47-1.683-5.47-5.68v-10.1h-2.735V78.391h2.734v-5.33h4.208v5.33h5.75v3.156h-5.75v9.326c0,2.034.771,2.665,2.1,2.665a6.539,6.539,0,0,0,2.945-.841Z" transform="translate(-917.891 -69.485)"></path></g></svg> 