<?xml version="1.0" encoding="UTF-8"?> <svg xmlns="http://www.w3.org/2000/svg" width="189.374" height="48.178" viewBox="0 0 189.374 48.178"><defs><style>.a{isolation:isolate;}.b{fill:#707171;}</style></defs><g class="a" transform="translate(-34.235 -1071.902)"><path class="b" d="M64.856,1120.08l-19.393-31.506h-.2l.272,31.506h-11.3V1071.9H47.5l19.326,31.438h.2l-.272-31.438h11.3v48.178Z"></path><path class="b" d="M151.146,1095.855a23.724,23.724,0,0,1-2.347,10.921,22.027,22.027,0,0,1-6.192,7.553,25.828,25.828,0,0,1-8.676,4.355,35.176,35.176,0,0,1-9.8,1.395H106.167V1071.9h17.421a43.125,43.125,0,0,1,10.071,1.191,25.286,25.286,0,0,1,8.846,3.947,20.213,20.213,0,0,1,6.26,7.383A24.8,24.8,0,0,1,151.146,1095.855Zm-12.112,0a15.256,15.256,0,0,0-1.327-6.771,11.41,11.41,0,0,0-3.539-4.287,14.175,14.175,0,0,0-5.035-2.279,24.787,24.787,0,0,0-5.818-.681h-5.784v28.172h5.511a25.069,25.069,0,0,0,6.022-.714,14.24,14.24,0,0,0,5.1-2.348,11.641,11.641,0,0,0,3.539-4.355A15.3,15.3,0,0,0,139.034,1095.855Z" transform="translate(-18.176)"></path><path class="b" d="M213.183,1086.737a14.78,14.78,0,0,1-1.565,7.111,12.856,12.856,0,0,1-4.219,4.661,18.624,18.624,0,0,1-6.124,2.586,31.414,31.414,0,0,1-7.213.817h-5.784v18.168H176.642V1071.9h17.692a33.263,33.263,0,0,1,7.384.783,17.426,17.426,0,0,1,5.988,2.517,12.217,12.217,0,0,1,4.015,4.559A15.06,15.06,0,0,1,213.183,1086.737Zm-11.636.068a5.2,5.2,0,0,0-.68-2.791,4.756,4.756,0,0,0-1.838-1.7,7.909,7.909,0,0,0-2.62-.817,22.034,22.034,0,0,0-3.027-.2h-5.1v11.364h4.9a17.406,17.406,0,0,0,3.13-.272,8.382,8.382,0,0,0,2.688-.953,5.108,5.108,0,0,0,1.871-1.8A5.373,5.373,0,0,0,201.547,1086.805Z" transform="translate(-35.983)"></path><path class="b" d="M260.707,1120.08l-10.46-19.121h-3.966v19.121H234.917V1071.9h18.372a31.978,31.978,0,0,1,6.771.714,17.622,17.622,0,0,1,5.92,2.416,12.652,12.652,0,0,1,4.185,4.491,14.033,14.033,0,0,1,1.565,6.941,12.8,12.8,0,0,1-2.654,8.233,14.465,14.465,0,0,1-7.349,4.763l12.589,20.619Zm-.477-33.411a4.813,4.813,0,0,0-.718-2.755,4.925,4.925,0,0,0-1.847-1.634,8.087,8.087,0,0,0-2.53-.782,18.878,18.878,0,0,0-2.7-.2h-6.222v11.228h5.538a18.751,18.751,0,0,0,2.941-.238,9.4,9.4,0,0,0,2.735-.851,4.94,4.94,0,0,0,2.8-4.763Z" transform="translate(-50.708)"></path></g></svg> 