<?xml version="1.0" encoding="UTF-8"?> <svg xmlns="http://www.w3.org/2000/svg" width="211.484" height="65.744" viewBox="0 0 211.484 65.744"><defs><style>.a{fill:#848484;}</style></defs><path class="a" d="M341.98,151.871c-.185,1.243-.342,2.888-.687,4.493a11.54,11.54,0,0,1-7.787,8.945,19.556,19.556,0,0,1-15.693-.707c-4.538-2.227-6.584-6.068-7.016-10.918a22.671,22.671,0,0,1,.611-7.51,11.705,11.705,0,0,1,8.029-8.621,20.225,20.225,0,0,1,13.819.1c5.015,1.79,7.769,5.392,8.4,10.648C341.781,149.35,341.849,150.406,341.98,151.871ZM331,151.6c-.065-1.472-.141-2.745-.174-4.018-.075-2.825-1.848-3.686-4.044-3.762a9.534,9.534,0,0,0-2.831.416,2.515,2.515,0,0,0-1.837,1.946,26.073,26.073,0,0,0-.039,10.281,2.419,2.419,0,0,0,1.577,2.058,10.648,10.648,0,0,0,3.619.567c2.375-.194,3.309-1.292,3.517-3.679C330.9,154.08,330.935,152.743,331,151.6Z" transform="translate(-262.517 -118.475)"></path><path class="a" d="M166.327,164l-.168,1.849h-6.4c0-2.512,0-4.994,0-7.475,0-.81.049-1.62.03-2.429-.013-.54.145-.793.736-.784,1.495.023,2.991-.022,4.485.006a1.064,1.064,0,0,1,.772.362c1.92,2.945,4.789,4.044,8.126,4.146a15.022,15.022,0,0,0,3.233-.36c.353-.067.637-.493.953-.755-.286-.328-.511-.83-.867-.955-1.908-.666-3.85-1.233-5.778-1.842-1.75-.553-3.518-1.059-5.238-1.693a14.365,14.365,0,0,1-2.819-1.43,8.1,8.1,0,0,1-3.781-8.346,7.8,7.8,0,0,1,5.229-6.7,16.8,16.8,0,0,1,13.593.594c.448.2.869.466,1.311.706a1.271,1.271,0,0,0,.161-.3c.226-1.374.224-1.38,1.65-1.387,1.487-.007,2.974,0,4.627,0,0,.72,0,1.334,0,1.948.015,2.4.005,4.8.064,7.195.019.76-.274.971-.971.959-1.495-.026-2.991.021-4.484-.023a1.39,1.39,0,0,1-.933-.439c-2.531-3.118-6-3.8-9.728-3.748-.695.009-1.465.275-1.59,1.056-.137.856.638,1.146,1.3,1.343,3.337,1,6.7,1.919,10.023,2.966,3.623,1.141,6.231,3.424,7.122,7.223a8.5,8.5,0,0,1-4.8,9.587c-4.242,1.916-8.551,1.615-12.835.125C168.332,165.044,167.387,164.5,166.327,164Z" transform="translate(-139.594 -118.51)"></path><path class="a" d="M52.866,160.169h4.092V145.307c-1.118,0-2.231.028-3.34-.021-.253-.011-.706-.287-.709-.448-.047-2.2-.032-4.4-.032-6.8,1.24,0,2.381,0,3.523,0q6.868.029,13.735.064c1.284.007,1.3.014,1.306,1.255.013,1.713-.02,3.426.017,5.139.014.659-.215.875-.862.846-.9-.04-1.806.021-2.709,0-.508-.01-.719.154-.718.7.01,4.548,0,9.1-.006,13.643a4.076,4.076,0,0,0,.089.519c1.14,0,2.285-.034,3.424.026.261.014.721.344.725.537.053,2.11.033,4.222.033,6.409H52.866Z" transform="translate(-52.866 -119.818)"></path><path class="a" d="M165.7,55.62a1.482,1.482,0,0,1-1.769-.53c-1.8-2.012-3.69-3.947-5.538-5.918a.932.932,0,0,0-1.378-.148c-.823.541-1.694,1.009-2.542,1.506l3.728,5.021c-.883.327-1.382.291-1.853-.385-.817-1.174-1.746-2.269-2.607-3.413a.9.9,0,0,0-1.256-.331c-1.575.655-3.188,1.215-4.847,1.836l.966,2.349c-.794.327-1.251.176-1.614-.572-.727-1.5-.755-1.433-2.385-1.182-1.9.293-3.822.493-5.824.746-.28.306.244,1.437-.84,1.125-.349-.1-.56-.676-.949-1.183l-5.376-.629c-.093-.011-.186-.019-.278-.034-1.662-.28-1.693-.294-2.4,1.247-.329.713-.809.753-1.564.555l.949-2.413c-1.743-.63-3.429-1.259-5.133-1.83a.9.9,0,0,0-.749.292c-.911,1.1-1.791,2.234-2.654,3.375-.584.771-.608.8-1.8.558.578-.866,1.1-1.7,1.674-2.491s1.207-1.582,1.9-2.487c-1.043-.61-2.032-1.233-3.07-1.757-.192-.1-.667.125-.871.335-1.835,1.9-3.676,3.792-5.43,5.763a1.509,1.509,0,0,1-1.919.6c5.814-8.562,13.743-13.584,23.951-14.817A32.68,32.68,0,0,1,165.7,55.62Zm-28.384-2.38c0-2.382.018-4.46-.026-6.536,0-.217-.331-.538-.573-.62a2.369,2.369,0,0,0-3.285,1.262,10.742,10.742,0,0,1-.693.99c-.8,1.277-1.583,2.562-2.524,4.089Zm8.069-.814.234-.4L141.482,46.1c-.9.084-1.8.165-2.7.263-.029,0-.056.17-.056.26,0,2.133,0,4.266,0,6.606Zm6.769-2.187a5.666,5.666,0,0,0-.57-.643c-1.9-1.454-3.826-2.869-5.7-4.358-1.128-.9-2.081-.545-3.06.178,1.315,2.058,2.612,4.1,3.936,6.127a.7.7,0,0,0,.6.25C148.928,51.316,150.475,50.794,152.158,50.24Zm-19.014-4.858a2.36,2.36,0,0,0-3.17.018c-1.707,1.348-3.459,2.64-5.2,3.944-.317.238-.673.425-1.01.636l.229.383,4.875,1.655ZM131.06,42.64c3.671,3.12,10.826,2.648,13.761-.019A31.487,31.487,0,0,0,131.06,42.64Zm-1.011.792a4.668,4.668,0,0,0-1.7-.124,32.335,32.335,0,0,0-8.224,4.077c-.189.137-.356.3-.668.574.978.53,1.83,1.021,2.714,1.448a.833.833,0,0,0,.728-.1C125.206,47.438,127.493,45.54,130.049,43.432Zm16,.014c2.433,1.991,4.751,3.9,7.084,5.781a.734.734,0,0,0,.632.124c.9-.463,1.777-.978,2.686-1.49a1.742,1.742,0,0,0-.234-.292,28.036,28.036,0,0,0-9.019-4.307A2.887,2.887,0,0,0,146.05,43.446Z" transform="translate(-99.541 -40.563)"></path><path class="a" d="M159.315,310.584l-3.6,4.988,3.311,1.937a31.21,31.21,0,0,0,6.051-6.355c.6-.817.6-.815,1.876-.616A32.818,32.818,0,0,1,139.783,325.7c-13.389.327-24.2-7.867-28.3-15.18a1.428,1.428,0,0,1,1.735.592c1.779,2.031,3.667,3.967,5.508,5.944a.887.887,0,0,0,1.3.141c.833-.539,1.708-1.015,2.608-1.542l-3.652-5.066c.9-.348,1.391-.213,1.868.51a40.83,40.83,0,0,0,2.617,3.4,1.024,1.024,0,0,0,.834.358c1.734-.586,3.445-1.243,5.261-1.914l-.983-2.4c.815-.306,1.271-.132,1.623.624.666,1.428.7,1.378,2.249,1.168,1.968-.267,3.944-.479,5.982-.723.042-.329.088-.687.133-1.038,1.117-.3,1.117-.3,1.348,1.008l7.542.969c.835-.479.419-2.469,2.381-2.041l-.987,2.431c.37.128.736.25,1.1.382,1.286.469,2.56.974,3.862,1.389a1.145,1.145,0,0,0,1-.23,36.666,36.666,0,0,0,2.5-3.254A1.458,1.458,0,0,1,159.315,310.584Zm-19.4,2.376v7.094c.52.092.984.136,1.425.259a1.558,1.558,0,0,0,2.019-.8c.41-.728.978-1.365,1.427-2.073.708-1.118,1.375-2.262,2.21-3.646Zm-8.239.8-.181.35c1.385,2.014,2.765,4.031,4.167,6.033a.7.7,0,0,0,.546.236c.762-.073,1.519-.2,2.235-.3v-7.114Zm2.656,7.121c-1.312-2.109-2.6-4.195-3.915-6.269-.094-.149-.365-.333-.488-.294-1.629.522-3.246,1.081-5.018,1.682a33.74,33.74,0,0,0,6.356,5.037A2.415,2.415,0,0,0,134.328,320.876Zm14.007-6.694L144.1,320.87c1.56.927,1.561.928,3.025.051.453-.272.914-.533,1.35-.83a25.314,25.314,0,0,0,4.869-4.168Zm-2.105,9.45c-3.906-3.15-11.338-2.547-13.93.02A31.175,31.175,0,0,0,146.229,323.632Zm1.157-.972c.566.513.569.521,1.341.272a29.007,29.007,0,0,0,9.092-4.589c-1-.546-1.883-1.055-2.8-1.5a.822.822,0,0,0-.714.12C152,318.839,149.709,320.741,147.386,322.66Zm-16.289.131c-2.489-2.033-4.789-3.92-7.1-5.789a.742.742,0,0,0-.624-.15c-.914.473-1.8,1-2.805,1.57a28.423,28.423,0,0,0,9.409,4.585C130.3,323.1,130.714,322.872,131.1,322.791Z" transform="translate(-100.529 -259.964)"></path><g transform="translate(89.872 4.74)"><path class="a" d="M533.7,85.236V71.521h3.332V85.236Z" transform="translate(-533.699 -70.475)"></path><path class="a" d="M569.012,73.568a2.992,2.992,0,0,0-1.114-.862,3.142,3.142,0,0,0-1.327-.32,3.933,3.933,0,0,0-.668.058,1.726,1.726,0,0,0-.61.223,1.506,1.506,0,0,0-.455.426,1.132,1.132,0,0,0-.184.668,1.077,1.077,0,0,0,.145.581,1.292,1.292,0,0,0,.426.407,3.787,3.787,0,0,0,.668.32q.388.145.872.3.7.232,1.453.513a5.438,5.438,0,0,1,1.375.746,3.918,3.918,0,0,1,1.027,1.152,3.321,3.321,0,0,1,.407,1.715,4.478,4.478,0,0,1-.436,2.043,4.075,4.075,0,0,1-1.172,1.424,5.022,5.022,0,0,1-1.685.833,7.1,7.1,0,0,1-1.957.271,8.083,8.083,0,0,1-2.848-.513,6.029,6.029,0,0,1-2.286-1.463l2.169-2.208a4,4,0,0,0,1.327,1.036,3.6,3.6,0,0,0,1.637.416,3.288,3.288,0,0,0,.717-.077,1.782,1.782,0,0,0,.61-.252,1.26,1.26,0,0,0,.416-.465,1.464,1.464,0,0,0,.155-.7,1.107,1.107,0,0,0-.194-.659,1.9,1.9,0,0,0-.552-.494,4.486,4.486,0,0,0-.891-.407q-.533-.184-1.211-.4a11.537,11.537,0,0,1-1.288-.5,4.312,4.312,0,0,1-1.124-.746,3.447,3.447,0,0,1-.794-1.1,3.739,3.739,0,0,1-.3-1.579A3.881,3.881,0,0,1,561.787,72a4.039,4.039,0,0,1,1.22-1.337,5.244,5.244,0,0,1,1.7-.765,7.734,7.734,0,0,1,1.918-.242,7.126,7.126,0,0,1,2.373.426,6.115,6.115,0,0,1,2.121,1.259Z" transform="translate(-555.608 -68.958)"></path><path class="a" d="M639.42,76.719a7.65,7.65,0,0,1-.562,2.973A6.775,6.775,0,0,1,637.3,82a6.942,6.942,0,0,1-2.373,1.482,8.743,8.743,0,0,1-5.957,0A6.956,6.956,0,0,1,626.606,82a6.764,6.764,0,0,1-1.559-2.305,7.643,7.643,0,0,1-.562-2.973,7.554,7.554,0,0,1,.562-2.974,6.507,6.507,0,0,1,1.559-2.257,6.947,6.947,0,0,1,2.363-1.433,9.057,9.057,0,0,1,5.957,0,6.934,6.934,0,0,1,2.373,1.433,6.518,6.518,0,0,1,1.559,2.257A7.56,7.56,0,0,1,639.42,76.719Zm-3.545,0a4.705,4.705,0,0,0-.291-1.666,3.975,3.975,0,0,0-.8-1.327,3.709,3.709,0,0,0-1.24-.872,3.927,3.927,0,0,0-1.6-.32,3.812,3.812,0,0,0-2.828,1.191,3.772,3.772,0,0,0-.8,1.327,5.143,5.143,0,0,0,.01,3.38,4.056,4.056,0,0,0,.8,1.346,3.667,3.667,0,0,0,1.23.881,4.107,4.107,0,0,0,3.177,0,3.776,3.776,0,0,0,1.24-.881,3.972,3.972,0,0,0,.814-1.346A4.9,4.9,0,0,0,635.875,76.719Z" transform="translate(-607.516 -68.874)"></path><path class="a" d="M710,81.692l-2.189-.717L713.8,65.924l2.189.755Z" transform="translate(-675.268 -65.924)"></path><path class="a" d="M759.113,85.236V71.521h3.332V85.236Z" transform="translate(-716.981 -70.475)"></path><path class="a" d="M792.069,85.236V71.521h9.221V74.31h-6.024v2.6h5.7V79.56h-5.7v2.848h6.373v2.828Z" transform="translate(-743.777 -70.475)"></path><path class="a" d="M862.018,83.393a7.346,7.346,0,0,1-3.08.61A8.033,8.033,0,0,1,856,83.48a6.776,6.776,0,0,1-3.884-3.777,8.034,8.034,0,0,1,.01-5.928,6.633,6.633,0,0,1,1.579-2.276,6.993,6.993,0,0,1,2.363-1.443,8.472,8.472,0,0,1,5.782.01,5.474,5.474,0,0,1,2.276,1.5l-2.247,2.247a2.78,2.78,0,0,0-1.221-.949,4.052,4.052,0,0,0-1.55-.31,3.925,3.925,0,0,0-1.6.32,3.753,3.753,0,0,0-1.25.881,4.017,4.017,0,0,0-.814,1.327,4.687,4.687,0,0,0-.29,1.676,4.822,4.822,0,0,0,.29,1.7,3.969,3.969,0,0,0,.8,1.327,3.614,3.614,0,0,0,1.23.862,3.909,3.909,0,0,0,1.569.31,3.649,3.649,0,0,0,1.724-.387,3.342,3.342,0,0,0,1.182-1.007l2.305,2.169A6.532,6.532,0,0,1,862.018,83.393Z" transform="translate(-792.146 -68.874)"></path></g><g transform="translate(89.484 26.293)"><path class="a" d="M531.916,195.318V192.61l5.347-4.834a5.072,5.072,0,0,0,.814-.986,2.1,2.1,0,0,0,.31-1.121,1.588,1.588,0,0,0-.465-1.189,1.869,1.869,0,0,0-2.567.117,2.581,2.581,0,0,0-.61,1.5l-3.119-.426a4.9,4.9,0,0,1,.572-1.863,4.839,4.839,0,0,1,1.153-1.393,4.971,4.971,0,0,1,1.6-.878,5.953,5.953,0,0,1,1.908-.3,6.743,6.743,0,0,1,1.84.252,4.8,4.8,0,0,1,1.589.775,3.872,3.872,0,0,1,1.114,1.317,3.953,3.953,0,0,1,.416,1.86,4.25,4.25,0,0,1-.194,1.327,4.419,4.419,0,0,1-.533,1.095,6.314,6.314,0,0,1-.775.939q-.436.436-.9.862l-3.177,2.828h5.6v2.828Z" transform="translate(-531.625 -181.235)"></path><path class="a" d="M604.32,196.919h-3.777l5.559-10.925h-6.489V183.2h9.957v2.6Z" transform="translate(-586.905 -182.836)"></path><path class="a" d="M675.534,188.422a12.837,12.837,0,0,1-.291,2.77,7.078,7.078,0,0,1-.93,2.315,4.617,4.617,0,0,1-4.126,2.179,4.683,4.683,0,0,1-4.155-2.179,6.941,6.941,0,0,1-.939-2.315,12.821,12.821,0,0,1-.291-2.77,12.687,12.687,0,0,1,.291-2.76,6.731,6.731,0,0,1,.939-2.286,4.849,4.849,0,0,1,1.676-1.559,4.96,4.96,0,0,1,2.48-.581,4.906,4.906,0,0,1,2.47.581,4.792,4.792,0,0,1,1.656,1.559,6.863,6.863,0,0,1,.93,2.286A12.7,12.7,0,0,1,675.534,188.422Zm-3.332,0q0-.639-.077-1.414a7.065,7.065,0,0,0-.291-1.443,3.14,3.14,0,0,0-.61-1.124,1.311,1.311,0,0,0-1.036-.455,1.34,1.34,0,0,0-1.046.455,3.162,3.162,0,0,0-.63,1.124,6.639,6.639,0,0,0-.3,1.443q-.077.775-.077,1.414,0,.659.077,1.443a6.645,6.645,0,0,0,.3,1.453,3.159,3.159,0,0,0,.63,1.124,1.339,1.339,0,0,0,1.046.455,1.31,1.31,0,0,0,1.036-.455,3.137,3.137,0,0,0,.61-1.124,7.069,7.069,0,0,0,.291-1.453Q672.2,189.08,672.2,188.422Z" transform="translate(-639.91 -181.235)"></path><path class="a" d="M742.485,188.422a12.837,12.837,0,0,1-.291,2.77,7.081,7.081,0,0,1-.93,2.315,4.618,4.618,0,0,1-4.126,2.179,4.683,4.683,0,0,1-4.155-2.179,6.94,6.94,0,0,1-.939-2.315,12.821,12.821,0,0,1-.291-2.77,12.687,12.687,0,0,1,.291-2.76,6.731,6.731,0,0,1,.939-2.286,4.848,4.848,0,0,1,1.676-1.559,4.96,4.96,0,0,1,2.479-.581,4.906,4.906,0,0,1,2.47.581,4.793,4.793,0,0,1,1.656,1.559,6.865,6.865,0,0,1,.93,2.286A12.7,12.7,0,0,1,742.485,188.422Zm-3.332,0q0-.639-.078-1.414a7.056,7.056,0,0,0-.291-1.443,3.14,3.14,0,0,0-.61-1.124,1.311,1.311,0,0,0-1.036-.455,1.339,1.339,0,0,0-1.046.455,3.16,3.16,0,0,0-.63,1.124,6.624,6.624,0,0,0-.3,1.443q-.078.775-.078,1.414,0,.659.078,1.443a6.631,6.631,0,0,0,.3,1.453,3.157,3.157,0,0,0,.63,1.124,1.338,1.338,0,0,0,1.046.455,1.31,1.31,0,0,0,1.036-.455,3.137,3.137,0,0,0,.61-1.124,7.061,7.061,0,0,0,.291-1.453Q739.152,189.08,739.153,188.422Z" transform="translate(-694.347 -181.235)"></path><path class="a" d="M804.811,196.919V186.846l-2.557,1.976-1.685-2.305,4.512-3.312h2.966v13.715Z" transform="translate(-750.301 -182.836)"></path><path class="a" d="M871.732,206.168a1.724,1.724,0,0,1-.155.726,2.007,2.007,0,0,1-.407.591,1.9,1.9,0,0,1-1.317.542,2.011,2.011,0,0,1-.736-.136,1.817,1.817,0,0,1-.61-.387,1.949,1.949,0,0,1-.417-.581,1.658,1.658,0,0,1-.155-.717,1.723,1.723,0,0,1,.155-.726,1.921,1.921,0,0,1,.417-.591,1.957,1.957,0,0,1,.61-.4,1.9,1.9,0,0,1,.736-.145,1.848,1.848,0,0,1,.717.145,1.926,1.926,0,0,1,.6.387,1.892,1.892,0,0,1,.407.581A1.683,1.683,0,0,1,871.732,206.168Zm0,6.218a1.725,1.725,0,0,1-.155.727,1.885,1.885,0,0,1-.407.581,1.923,1.923,0,0,1-.6.387,1.848,1.848,0,0,1-.717.145,2.019,2.019,0,0,1-.736-.135,1.82,1.82,0,0,1-.61-.387,1.95,1.95,0,0,1-.417-.581,1.657,1.657,0,0,1-.155-.717,1.725,1.725,0,0,1,.155-.727,1.921,1.921,0,0,1,.417-.591,1.956,1.956,0,0,1,.61-.4,1.9,1.9,0,0,1,.736-.145,1.848,1.848,0,0,1,.717.145,1.925,1.925,0,0,1,.6.387,1.893,1.893,0,0,1,.407.581A1.726,1.726,0,0,1,871.732,212.386Z" transform="translate(-805.076 -200.027)"></path><path class="a" d="M926.988,195.318V192.61l5.347-4.834a5.073,5.073,0,0,0,.813-.986,2.1,2.1,0,0,0,.31-1.121,1.589,1.589,0,0,0-.465-1.189,1.869,1.869,0,0,0-2.567.117,2.581,2.581,0,0,0-.61,1.5l-3.119-.426a4.9,4.9,0,0,1,.572-1.863,4.834,4.834,0,0,1,1.152-1.393,4.971,4.971,0,0,1,1.6-.878,5.952,5.952,0,0,1,1.908-.3,6.745,6.745,0,0,1,1.84.252,4.8,4.8,0,0,1,1.588.775,3.87,3.87,0,0,1,1.114,1.317,3.952,3.952,0,0,1,.416,1.86,4.248,4.248,0,0,1-.194,1.327,4.414,4.414,0,0,1-.533,1.095,6.3,6.3,0,0,1-.775.939q-.436.436-.9.862l-3.177,2.828h5.6v2.828Z" transform="translate(-852.855 -181.235)"></path><path class="a" d="M1003.655,188.422a12.837,12.837,0,0,1-.29,2.77,7.078,7.078,0,0,1-.93,2.315,4.617,4.617,0,0,1-4.126,2.179,4.683,4.683,0,0,1-4.155-2.179,6.943,6.943,0,0,1-.939-2.315,12.829,12.829,0,0,1-.291-2.77,12.7,12.7,0,0,1,.291-2.76,6.734,6.734,0,0,1,.939-2.286,4.85,4.85,0,0,1,1.676-1.559,4.96,4.96,0,0,1,2.479-.581,4.907,4.907,0,0,1,2.47.581,4.793,4.793,0,0,1,1.656,1.559,6.863,6.863,0,0,1,.93,2.286A12.7,12.7,0,0,1,1003.655,188.422Zm-3.332,0q0-.639-.077-1.414a7.065,7.065,0,0,0-.291-1.443,3.139,3.139,0,0,0-.61-1.124,1.311,1.311,0,0,0-1.036-.455,1.34,1.34,0,0,0-1.046.455,3.161,3.161,0,0,0-.63,1.124,6.617,6.617,0,0,0-.3,1.443q-.078.775-.078,1.414,0,.659.078,1.443a6.624,6.624,0,0,0,.3,1.453,3.157,3.157,0,0,0,.63,1.124,1.339,1.339,0,0,0,1.046.455,1.309,1.309,0,0,0,1.036-.455,3.136,3.136,0,0,0,.61-1.124,7.069,7.069,0,0,0,.291-1.453Q1000.322,189.08,1000.323,188.422Z" transform="translate(-906.702 -181.235)"></path><path class="a" d="M1065.981,196.919V186.846l-2.557,1.976-1.685-2.305,4.512-3.312h2.965v13.715Z" transform="translate(-962.656 -182.836)"></path><path class="a" d="M1137.408,186.136a5.594,5.594,0,0,1-.426,2.218,12.847,12.847,0,0,1-1.1,2.024l-3.31,4.94h-3.929l3.412-4.727.039-.058a2.418,2.418,0,0,1-.474.116,3.339,3.339,0,0,1-.493.039,4.66,4.66,0,0,1-1.721-.32,4.361,4.361,0,0,1-1.431-.91,4.4,4.4,0,0,1-1.353-3.245,4.972,4.972,0,0,1,.425-2.092,4.574,4.574,0,0,1,1.16-1.569,5.137,5.137,0,0,1,1.721-.978,6.664,6.664,0,0,1,4.2,0,5.03,5.03,0,0,1,1.711.978,4.682,4.682,0,0,1,1.151,1.55A4.746,4.746,0,0,1,1137.408,186.136Zm-3.235-.039a2.248,2.248,0,0,0-.574-1.54,1.984,1.984,0,0,0-1.566-.649,2.111,2.111,0,0,0-1.586.61,2.194,2.194,0,0,0-.594,1.6,2.137,2.137,0,0,0,.583,1.54,2.054,2.054,0,0,0,1.557.61,2.065,2.065,0,0,0,2.179-2.169Z" transform="translate(-1015.409 -181.235)"></path></g><g transform="translate(89.233 46.238)"><path class="a" d="M540.739,306.76a7.345,7.345,0,0,1-3.08.61,8.037,8.037,0,0,1-2.935-.523,6.776,6.776,0,0,1-3.884-3.777,8.033,8.033,0,0,1,.01-5.928,6.634,6.634,0,0,1,1.579-2.276,7,7,0,0,1,2.363-1.443,8.473,8.473,0,0,1,5.782.01,5.472,5.472,0,0,1,2.276,1.5l-2.247,2.247a2.783,2.783,0,0,0-1.22-.949,4.055,4.055,0,0,0-1.55-.31,3.926,3.926,0,0,0-1.6.32,3.75,3.75,0,0,0-1.249.881,4.016,4.016,0,0,0-.814,1.327,4.684,4.684,0,0,0-.291,1.676,4.819,4.819,0,0,0,.291,1.7,3.964,3.964,0,0,0,.8,1.327,3.614,3.614,0,0,0,1.23.862,3.908,3.908,0,0,0,1.569.31,3.649,3.649,0,0,0,1.724-.387,3.344,3.344,0,0,0,1.182-1.007l2.305,2.169A6.531,6.531,0,0,1,540.739,306.76Z" transform="translate(-530.278 -291.989)"></path><path class="a" d="M612.362,320.244v.387a3.451,3.451,0,0,1-.019.368h-6.993a1.684,1.684,0,0,0,.242.736,2.089,2.089,0,0,0,.523.571,2.566,2.566,0,0,0,1.54.513,2.671,2.671,0,0,0,1.279-.281,2.523,2.523,0,0,0,.852-.726l2.208,1.395a4.47,4.47,0,0,1-1.792,1.521,5.934,5.934,0,0,1-2.586.533,6.174,6.174,0,0,1-2.053-.339,4.98,4.98,0,0,1-1.7-.988,4.575,4.575,0,0,1-1.143-1.6,5.349,5.349,0,0,1-.416-2.17,5.433,5.433,0,0,1,.407-2.141,4.84,4.84,0,0,1,1.1-1.627,4.921,4.921,0,0,1,1.646-1.036,5.633,5.633,0,0,1,2.053-.368,5.2,5.2,0,0,1,1.957.358,4.266,4.266,0,0,1,1.53,1.036,4.8,4.8,0,0,1,1,1.647A6.344,6.344,0,0,1,612.362,320.244Zm-2.925-1.22a1.906,1.906,0,0,0-.475-1.3,1.792,1.792,0,0,0-1.424-.542,2.412,2.412,0,0,0-.852.145,2.215,2.215,0,0,0-.678.4,1.968,1.968,0,0,0-.465.591,1.727,1.727,0,0,0-.194.707Z" transform="translate(-588.845 -309.938)"></path><path class="a" d="M672.924,318.087a2.459,2.459,0,0,0-.416-.078q-.2-.019-.4-.019a2.27,2.27,0,0,0-1.075.232,2.191,2.191,0,0,0-.7.56,2.123,2.123,0,0,0-.378.715,2.392,2.392,0,0,0-.116.676v4.946h-3.177v-9.636h3.061v1.395h.039a3.143,3.143,0,0,1,1.046-1.209,2.693,2.693,0,0,1,1.569-.468,3.673,3.673,0,0,1,.378.019,1.472,1.472,0,0,1,.3.058Z" transform="translate(-641.175 -310.106)"></path><path class="a" d="M705.932,307.976v3.695a1.662,1.662,0,0,0,.261,1.021,1.12,1.12,0,0,0,.939.34,3.359,3.359,0,0,0,.494-.039,1.691,1.691,0,0,0,.436-.116l.039,2.325a5.268,5.268,0,0,1-.833.2,5.9,5.9,0,0,1-1.007.087,4.745,4.745,0,0,1-1.627-.243,2.517,2.517,0,0,1-1.056-.7,2.742,2.742,0,0,1-.571-1.088,5.285,5.285,0,0,1-.174-1.408v-4.079h-1.55v-2.363h1.53v-2.538h3.119v2.538H708.2v2.363Z" transform="translate(-669.321 -300.247)"></path><path class="a" d="M748.867,292.589a1.641,1.641,0,0,1-.145.688,1.738,1.738,0,0,1-.969.92,1.882,1.882,0,0,1-.707.136,1.779,1.779,0,0,1-1.3-.513,1.662,1.662,0,0,1-.523-1.23,1.693,1.693,0,0,1,.136-.668,1.579,1.579,0,0,1,.387-.552,2.09,2.09,0,0,1,.581-.378,1.755,1.755,0,0,1,.717-.145,1.888,1.888,0,0,1,.707.136,1.737,1.737,0,0,1,.969.92A1.641,1.641,0,0,1,748.867,292.589Zm-3.409,12.727v-9.647h3.177v9.647Z" transform="translate(-705.049 -290.304)"></path><path class="a" d="M777.531,290.656a2.726,2.726,0,0,0-.407-.1,2.827,2.827,0,0,0-.465-.039,1.44,1.44,0,0,0-.717.155,1.148,1.148,0,0,0-.426.416,1.74,1.74,0,0,0-.213.591,3.774,3.774,0,0,0-.058.659v.969h2.15v2.363h-2.15v7.284h-3.177v-7.284h-1.763V293.31h1.763v-.93a7.212,7.212,0,0,1,.194-1.695,3.669,3.669,0,0,1,.668-1.414,3.266,3.266,0,0,1,1.278-.969,4.932,4.932,0,0,1,2.005-.358,6.667,6.667,0,0,1,.8.048,4.542,4.542,0,0,1,.726.145Z" transform="translate(-725.443 -287.944)"></path><path class="a" d="M817.269,292.589a1.644,1.644,0,0,1-.145.688,1.739,1.739,0,0,1-.969.92,1.883,1.883,0,0,1-.707.136,1.779,1.779,0,0,1-1.3-.513,1.662,1.662,0,0,1-.523-1.23,1.693,1.693,0,0,1,.135-.668,1.581,1.581,0,0,1,.387-.552,2.09,2.09,0,0,1,.581-.378,1.756,1.756,0,0,1,.717-.145,1.89,1.89,0,0,1,.707.136,1.739,1.739,0,0,1,.969.92A1.643,1.643,0,0,1,817.269,292.589Zm-3.409,12.727v-9.647h3.177v9.647Z" transform="translate(-760.667 -290.304)"></path><path class="a" d="M852.8,320.244v.387a3.389,3.389,0,0,1-.019.368h-6.993a1.687,1.687,0,0,0,.242.736,2.092,2.092,0,0,0,.523.571,2.565,2.565,0,0,0,1.54.513,2.67,2.67,0,0,0,1.278-.281,2.521,2.521,0,0,0,.852-.726l2.208,1.395a4.469,4.469,0,0,1-1.792,1.521,5.934,5.934,0,0,1-2.586.533,6.174,6.174,0,0,1-2.053-.339,4.979,4.979,0,0,1-1.7-.988,4.578,4.578,0,0,1-1.143-1.6,5.35,5.35,0,0,1-.416-2.17,5.432,5.432,0,0,1,.407-2.141,4.841,4.841,0,0,1,1.1-1.627,4.924,4.924,0,0,1,1.646-1.036,5.633,5.633,0,0,1,2.053-.368,5.2,5.2,0,0,1,1.957.358,4.266,4.266,0,0,1,1.53,1.036,4.789,4.789,0,0,1,1,1.647A6.339,6.339,0,0,1,852.8,320.244Zm-2.925-1.22a1.906,1.906,0,0,0-.474-1.3,1.792,1.792,0,0,0-1.424-.542,2.41,2.41,0,0,0-.852.145,2.21,2.21,0,0,0-.678.4,1.966,1.966,0,0,0-.465.591,1.728,1.728,0,0,0-.194.707Z" transform="translate(-784.345 -309.938)"></path><path class="a" d="M912.3,304.558V303.3h-.039a3.012,3.012,0,0,1-1.327,1.133,4.327,4.327,0,0,1-1.831.4,4.274,4.274,0,0,1-1.937-.426,4.438,4.438,0,0,1-1.443-1.133,4.971,4.971,0,0,1-.9-1.637,6.081,6.081,0,0,1-.31-1.937,5.833,5.833,0,0,1,.32-1.927,5.026,5.026,0,0,1,.91-1.618,4.247,4.247,0,0,1,3.322-1.511,3.678,3.678,0,0,1,1.8.407,4,4,0,0,1,1.143.891h.039v-6.024h3.177v14.645Zm-.116-4.843a2.615,2.615,0,0,0-.164-.911,2.576,2.576,0,0,0-.465-.794,2.319,2.319,0,0,0-.726-.562,2.138,2.138,0,0,0-.969-.213,2.181,2.181,0,0,0-.988.213,2.228,2.228,0,0,0-1.153,1.337,2.921,2.921,0,0,0-.145.91,3.011,3.011,0,0,0,.145.92,2.365,2.365,0,0,0,.436.8,2.142,2.142,0,0,0,1.7.775,2.136,2.136,0,0,0,.969-.213,2.315,2.315,0,0,0,.726-.562,2.571,2.571,0,0,0,.465-.794A2.613,2.613,0,0,0,912.188,299.715Z" transform="translate(-834.568 -289.545)"></path></g></svg> 