<?xml version="1.0" encoding="UTF-8"?> <svg xmlns="http://www.w3.org/2000/svg" width="77.217" height="80.137" viewBox="0 0 77.217 80.137"><defs><style>.a{fill:#707171;}</style></defs><path class="a" d="M267.47,187.817c.3.7.581,1.366.873,2.029.058.132-.025.18-.094.249-1.123,1.123-2.272,2.221-3.365,3.373a95.585,95.585,0,0,0-8.862,10.922,85.906,85.906,0,0,0-7.049,11.732c-.423.871-.792,1.768-1.185,2.653l-.1.218-14.936-15.427,3.83-3.118,8.629,6.871A96.482,96.482,0,0,1,267.47,187.817Z" transform="translate(-206.244 -187.817)"></path><g transform="translate(10.367 35.985)"><path class="a" d="M157.169,387.815c-.519.221-.818.421-.715.888-.65.268-.172,1.032-.668,1.457-.319.273-.374.895-.469,1.376-.091.462-.427.431-.727.438-.934.023-1.869.016-2.8.016-1.676,0-3.351-.017-5.026,0-.467.005-.6-.159-.6-.618.034-1.619-.056-1.293,1.322-1.307,1.611-.017,3.222,0,4.833-.005.671,0,.608-.018.754-.641a14.12,14.12,0,0,1,.659-1.77.792.792,0,0,0,.031-.09c.15-.6.265-1.214.459-1.8.174-.525.439-1.019.653-1.531.048-.115.035-.254.078-.372.087-.243.2-.477.289-.718a1.725,1.725,0,0,0,.082-.317c.057-.323-.095-.7.328-.926.1-.056.019-.4.089-.593.06-.162.213-.406.334-.411.864-.035,1.731-.019,2.627-.019a4.366,4.366,0,0,0,.065.562c.083.33.192.653.287.98.022.077.033.157.048.235.148.779.28,1.561.459,2.332a.64.64,0,0,0,.388.38c.089.027.3-.159.373-.295.24-.45.441-.919.656-1.382a.774.774,0,0,0,.041-.139l.5-2a.8.8,0,0,1,.881-.709h2.052c.038.33.172.631-.215.809-.037.017-.088.078-.081.106.153.612-.345,1.038-.457,1.582a10.221,10.221,0,0,1-.647,1.679,1.658,1.658,0,0,0-.078.17c-.145.53-.257,1.071-.439,1.587-.154.434-.391.839-.587,1.258a1.423,1.423,0,0,0-.117.306c-.074.356,0,.714-.343,1.037-.24.226-.255.689-.375,1.044-.144.424-.277.853-.452,1.265a.5.5,0,0,1-.348.273c-.708.027-1.417.021-2.126.014-.345,0-.551-.116-.532-.543a12.823,12.823,0,0,0-.047-2.075A9.808,9.808,0,0,0,157.169,387.815Z" transform="translate(-146.166 -380.835)"></path><path class="a" d="M261.621,391.935c.12-.429.186-.744.3-1.042.2-.537.416-1.066.634-1.595.123-.3.288-.581.388-.886.177-.54.3-1.1.481-1.635s.42-1.083.641-1.62c.134-.324.309-.634.418-.966.175-.531.3-1.078.464-1.614a13.016,13.016,0,0,1,.5-1.44c.054-.122.318-.213.486-.214,1.8-.012,3.608-.005,5.412,0,.506,0,.789.4,1.087.7a1.627,1.627,0,0,1,.474,1.587,3.942,3.942,0,0,1-.44,1.138,16.31,16.31,0,0,1-1.105,1.4.315.315,0,0,1-.119.07c-.167.074-.334.146-.5.219.142.212.282.427.429.635.025.035.1.037.122.072a2.984,2.984,0,0,1,.429.9,3.166,3.166,0,0,1-.183.989c-.02.094-.061.185-.073.279a3.106,3.106,0,0,1-1.331,2.172,4.075,4.075,0,0,1-2.524.957c-1.769-.069-3.543-.011-5.316-.018A4.5,4.5,0,0,1,261.621,391.935Zm5.139-2.174v-.032c.386,0,.774.022,1.159-.006a.9.9,0,0,0,.817-.693,5.92,5.92,0,0,0,.056-1.289c.007-.272-.141-.356-.4-.353-.628.005-1.256-.005-1.884-.01-.608,0-.766.142-.833.736-.016.145-.048.345-.147.415-.413.292-.2.7-.2,1.054,0,.057.394.147.612.172A7.439,7.439,0,0,0,266.76,389.761Zm3.446-6.047c-.146-.188-.3-.4-.465-.6-.354-.418-.842-.283-1.289-.29-.887-.014-1.131.222-1.242,1.1-.021.164-.2.3-.234.47-.049.244-.142.606-.021.733a1.124,1.124,0,0,0,1.237.251,5.159,5.159,0,0,1,.822-.224,1.012,1.012,0,0,0,.949-.918A2.809,2.809,0,0,1,270.206,383.714Z" transform="translate(-240.095 -380.898)"></path><path class="a" d="M355.644,390.058c.746,0,1.565-.005,2.384,0a.861.861,0,0,0,.868-.586,12.406,12.406,0,0,1,.613-1.082.446.446,0,0,0,.04-.088c.165-.531.316-1.067.5-1.592.133-.381.308-.748.466-1.12.225-.53.455-1.057.675-1.588.147-.355.269-.721.426-1.072.289-.646.6-1.285.934-2.012a2.435,2.435,0,0,1,.337-.031q2.488-.006,4.977,0a1.946,1.946,0,0,1,.445.108,1.537,1.537,0,0,0-.213.31c-.173.463-.329.933-.522,1.487-.772,0-1.573-.026-2.372.014a3.161,3.161,0,0,0-.862.292.192.192,0,0,0-.106.092c-.152.4-.293.8-.447,1.2-.134.343-.281.682-.424,1.022-.112.266-.222.533-.344.794-.192.409-.394.812-.59,1.219-.153.318-.325.629-.449.957-.183.484-.309.989-.5,1.47-.246.629-.505,1.255-.812,1.855a.719.719,0,0,1-.543.293c-1.594.021-3.189.015-4.783,0-.347,0-.437-.245-.259-.672C355.247,390.943,355.422,390.562,355.644,390.058Z" transform="translate(-316.06 -380.873)"></path><path class="a" d="M317.17,391.96c-.773,0-1.546.007-2.318-.007-.144,0-.4-.072-.407-.137a1.365,1.365,0,0,1,.086-.593c.069-.207.249-.391.271-.6a.613.613,0,0,1,.731-.627c.724.019,1.449,0,2.173.014.32.006.456-.1.562-.43a6.221,6.221,0,0,1,.626-1.132c.015-.027.049-.045.058-.073.15-.453.275-.915.45-1.358s.4-.874.609-1.309a1.73,1.73,0,0,0,.074-.175c.163-.483.3-.976.494-1.446s.46-.927.668-1.4c.172-.391.291-.8.458-1.2.15-.355.3-.677.812-.668,1.562.028,3.124.006,4.686.014a2.348,2.348,0,0,1,.491.107,2.373,2.373,0,0,0-.208.373,1.92,1.92,0,0,0-.092.469c-.063.741-.3.956-1.044.955-.6,0-1.191,0-1.787.005-.666.01-.888.247-1.033.889a6.707,6.707,0,0,1-.445,1.057c-.113.271-.2.552-.326.818-.164.357-.347.7-.528,1.054-.034.066-.116.113-.138.18-.167.51-.3,1.035-.5,1.532-.149.372-.4.7-.579,1.063s-.32.719-.471,1.082a4,4,0,0,0-.383,1.008c-.053.467-.3.535-.677.532C318.715,391.957,317.943,391.961,317.17,391.96Z" transform="translate(-283.063 -380.824)"></path><path class="a" d="M240.435,381.058h2.634a3.834,3.834,0,0,0-.324.608c-.181.6-.31,1.211-.507,1.8-.173.519-.419,1.013-.62,1.523-.149.376-.3.755-.412,1.141-.174.577-.294,1.171-.486,1.741-.187.554-.456,1.08-.654,1.63-.175.487-.29.995-.456,1.485a7.08,7.08,0,0,1-.445,1.055c-.044.082-.262.1-.4.1-.579.01-1.16.013-1.739,0-.144,0-.4-.079-.406-.141a1.533,1.533,0,0,1,.1-.59,4.275,4.275,0,0,1,.218-.437c.082-.18.152-.367.231-.549a1.428,1.428,0,0,0,.094-.167c.157-.571.3-1.146.469-1.711.049-.161.239-.278.289-.439.173-.552.306-1.116.47-1.671a2.675,2.675,0,0,1,.23-.47c.021-.04.081-.063.093-.1.154-.5.28-1.019.458-1.515.184-.515.416-1.012.628-1.517a.88.88,0,0,0,.044-.085C240.106,382.2,240.264,381.65,240.435,381.058Z" transform="translate(-219.75 -381.014)"></path></g><path class="a" d="M186.017,534.5a34.045,34.045,0,0,1-10.8,7.284,33.933,33.933,0,0,1-32.225-3.133,34.246,34.246,0,0,1-5.031-4.151q-.553-.553-1.08-1.132H130.9a38.7,38.7,0,0,0,16.059,12.676,38.56,38.56,0,0,0,36.617-3.56,38.776,38.776,0,0,0,9.5-9.116H187.1Q186.569,533.942,186.017,534.5Z" transform="translate(-123.379 -468.938)"></path><path class="a" d="M129.17,203.477a38.442,38.442,0,0,0-21.588,6.6A38.714,38.714,0,0,0,93.6,227.057a38.833,38.833,0,0,0-2.232,22.905H96.1a34.021,34.021,0,0,1,38.253-41.467c1.468-1.23,3.221-2.552,4.82-3.71A38.563,38.563,0,0,0,129.17,203.477Z" transform="translate(-90.561 -200.557)"></path><path class="a" d="M415.32,257.628a38.749,38.749,0,0,0-13.391-16.574,43.7,43.7,0,0,0-3.366,3.3l.181.121A34.092,34.092,0,0,1,411.06,259.43a34.191,34.191,0,0,1,1.754,21.1h4.739a38.838,38.838,0,0,0-2.233-22.9Z" transform="translate(-341.138 -231.128)"></path><g transform="translate(0.529 51.098)"><path class="a" d="M101.532,472.643a5.71,5.71,0,0,1-2.395.474,6.246,6.246,0,0,1-2.282-.407,5.267,5.267,0,0,1-3.019-2.937,6.248,6.248,0,0,1,.007-4.608,5.161,5.161,0,0,1,1.227-1.77,5.44,5.44,0,0,1,1.837-1.122,6.585,6.585,0,0,1,4.5.008,4.253,4.253,0,0,1,1.77,1.167l-1.747,1.747a2.162,2.162,0,0,0-.949-.738,3.15,3.15,0,0,0-1.2-.241,3.049,3.049,0,0,0-1.242.249,2.913,2.913,0,0,0-.971.685,3.123,3.123,0,0,0-.632,1.032,3.64,3.64,0,0,0-.226,1.3,3.746,3.746,0,0,0,.226,1.325,3.084,3.084,0,0,0,.625,1.032,2.811,2.811,0,0,0,.956.67,3.037,3.037,0,0,0,1.22.241,2.837,2.837,0,0,0,1.34-.3,2.6,2.6,0,0,0,.919-.783l1.792,1.687A5.075,5.075,0,0,1,101.532,472.643Z" transform="translate(-93.4 -461.883)"></path><path class="a" d="M152.283,474.08V463.418h7.168v2.168h-4.684V467.6H159.2v2.063h-4.428v2.214h4.955v2.2Z" transform="translate(-141.305 -463.132)"></path><path class="a" d="M207.019,474.08l-2.315-4.232h-.878v4.232h-2.515V463.418h4.066a7.065,7.065,0,0,1,1.5.158,3.9,3.9,0,0,1,1.31.535,2.8,2.8,0,0,1,.926.994,3.106,3.106,0,0,1,.346,1.536,2.834,2.834,0,0,1-.587,1.822,3.2,3.2,0,0,1-1.627,1.054l2.786,4.563Zm-.106-7.394a1.066,1.066,0,0,0-.159-.61,1.088,1.088,0,0,0-.409-.361,1.786,1.786,0,0,0-.56-.173,4.131,4.131,0,0,0-.6-.045h-1.377v2.485h1.226a4.123,4.123,0,0,0,.651-.053,2.082,2.082,0,0,0,.605-.188,1.092,1.092,0,0,0,.62-1.054Z" transform="translate(-181.191 -463.132)"></path><path class="a" d="M253.989,465.617v8.464h-2.575v-8.464H248.4v-2.2H257v2.2Z" transform="translate(-219.503 -463.132)"></path><path class="a" d="M300.822,474.08V463.418h2.59V474.08Z" transform="translate(-262.149 -463.132)"></path><path class="a" d="M329.052,465.617v2.2h4.126v2.123h-4.126v4.141h-2.545V463.418h7.018v2.2Z" transform="translate(-283.045 -463.132)"></path><path class="a" d="M373.031,474.08V463.418h2.59V474.08Z" transform="translate(-320.895 -463.132)"></path><path class="a" d="M398.717,474.08V463.418h7.168v2.168H401.2V467.6h4.428v2.063H401.2v2.214h4.955v2.2Z" transform="translate(-341.792 -463.132)"></path><path class="a" d="M457.7,468.719a5.25,5.25,0,0,1-.52,2.417,4.877,4.877,0,0,1-1.37,1.672,5.714,5.714,0,0,1-1.92.964,7.773,7.773,0,0,1-2.169.309h-3.976V463.418H451.6a9.534,9.534,0,0,1,2.229.264,5.6,5.6,0,0,1,1.958.873,4.476,4.476,0,0,1,1.385,1.634A5.489,5.489,0,0,1,457.7,468.719Zm-2.681,0a3.378,3.378,0,0,0-.294-1.5,2.527,2.527,0,0,0-.783-.949,3.142,3.142,0,0,0-1.114-.5,5.48,5.48,0,0,0-1.288-.151h-1.28v6.235h1.22a5.541,5.541,0,0,0,1.333-.158,3.157,3.157,0,0,0,1.13-.52,2.574,2.574,0,0,0,.783-.964A3.386,3.386,0,0,0,455.019,468.719Z" transform="translate(-381.679 -463.132)"></path></g></svg> 