<?xml version="1.0" encoding="UTF-8"?> <svg xmlns="http://www.w3.org/2000/svg" width="210.428" height="65.416" viewBox="0 0 210.428 65.416"><defs><style>.a{fill:#848484;}</style></defs><path class="a" d="M341.824,791.607c-.184,1.237-.34,2.874-.684,4.47a11.482,11.482,0,0,1-7.749,8.9,19.459,19.459,0,0,1-15.615-.7c-4.516-2.216-6.551-6.038-6.981-10.864a22.558,22.558,0,0,1,.608-7.472,11.647,11.647,0,0,1,7.989-8.578,20.125,20.125,0,0,1,13.75.1c4.99,1.781,7.73,5.365,8.358,10.6C341.626,789.1,341.693,790.15,341.824,791.607Zm-10.929-.266c-.065-1.465-.14-2.731-.174-4-.074-2.811-1.839-3.667-4.024-3.744a9.487,9.487,0,0,0-2.817.414,2.5,2.5,0,0,0-1.828,1.936,25.942,25.942,0,0,0-.039,10.229,2.407,2.407,0,0,0,1.569,2.047,10.593,10.593,0,0,0,3.6.564c2.363-.193,3.293-1.286,3.5-3.661C330.8,793.806,330.834,792.475,330.9,791.341Z" transform="translate(-262.758 -758.378)"></path><path class="a" d="M166.293,803.68l-.167,1.84h-6.368c0-2.5,0-4.969,0-7.438,0-.806.049-1.612.03-2.417-.012-.537.144-.789.732-.78,1.487.023,2.976-.022,4.463.006a1.058,1.058,0,0,1,.768.361c1.91,2.93,4.765,4.023,8.086,4.125a14.941,14.941,0,0,0,3.217-.358c.351-.067.634-.491.948-.751-.284-.326-.508-.826-.863-.95-1.9-.662-3.831-1.227-5.749-1.833-1.742-.55-3.5-1.054-5.212-1.685a14.3,14.3,0,0,1-2.8-1.423,8.061,8.061,0,0,1-3.762-8.3,7.762,7.762,0,0,1,5.2-6.671,16.719,16.719,0,0,1,13.525.591c.446.2.864.463,1.3.7a1.264,1.264,0,0,0,.16-.3c.224-1.367.223-1.373,1.642-1.38,1.479-.007,2.959,0,4.6,0,0,.717,0,1.328,0,1.939.015,2.386.005,4.774.064,7.159.019.756-.273.966-.966.954-1.487-.026-2.976.021-4.462-.023a1.384,1.384,0,0,1-.929-.437c-2.518-3.1-5.966-3.778-9.68-3.729-.691.009-1.458.274-1.582,1.05-.137.852.635,1.14,1.289,1.336,3.321,1,6.667,1.909,9.973,2.951,3.6,1.136,6.2,3.407,7.086,7.187a8.454,8.454,0,0,1-4.777,9.539c-4.221,1.907-8.508,1.607-12.771.124C168.288,804.715,167.348,804.173,166.293,803.68Z" transform="translate(-139.693 -758.414)"></path><path class="a" d="M52.866,799.872h4.072V785.085c-1.113,0-2.219.028-3.323-.021-.252-.011-.7-.285-.706-.446-.047-2.19-.032-4.382-.032-6.765,1.233,0,2.369,0,3.505,0q6.834.029,13.667.063c1.278.007,1.29.014,1.3,1.249.013,1.7-.02,3.409.017,5.113.014.656-.214.87-.858.842-.9-.04-1.8.021-2.7,0-.505-.01-.716.153-.715.692.01,4.525,0,9.05-.006,13.575a4.059,4.059,0,0,0,.089.517c1.134,0,2.273-.034,3.407.026.26.014.717.342.722.534.052,2.1.033,4.2.033,6.377H52.866Z" transform="translate(-52.866 -759.723)"></path><path class="a" d="M165.427,695.359a1.475,1.475,0,0,1-1.76-.527c-1.792-2-3.672-3.927-5.51-5.888a.928.928,0,0,0-1.371-.147c-.818.539-1.685,1-2.529,1.5l3.709,5c-.879.325-1.375.29-1.844-.383-.813-1.168-1.738-2.257-2.594-3.4a.892.892,0,0,0-1.249-.33c-1.567.651-3.172,1.209-4.822,1.827l.961,2.337c-.79.325-1.244.175-1.606-.569-.723-1.489-.751-1.426-2.373-1.176-1.894.291-3.8.491-5.8.742-.279.3.243,1.43-.835,1.12-.347-.1-.558-.672-.944-1.177l-5.349-.625c-.092-.011-.185-.019-.277-.034-1.653-.278-1.684-.293-2.392,1.241-.327.709-.805.749-1.556.552l.944-2.4c-1.734-.627-3.412-1.252-5.108-1.821a.893.893,0,0,0-.746.291c-.907,1.1-1.782,2.223-2.641,3.358-.581.767-.6.8-1.791.555.576-.861,1.1-1.687,1.665-2.479s1.2-1.574,1.892-2.475c-1.038-.607-2.022-1.227-3.055-1.748-.191-.1-.664.124-.866.334-1.826,1.888-3.657,3.773-5.4,5.734a1.5,1.5,0,0,1-1.909.594c5.785-8.52,13.674-13.517,23.831-14.743A32.517,32.517,0,0,1,165.427,695.359Zm-28.242-2.368c0-2.37.018-4.437-.026-6.5,0-.216-.33-.536-.571-.617a2.357,2.357,0,0,0-3.268,1.256,10.7,10.7,0,0,1-.69.985c-.794,1.271-1.575,2.549-2.511,4.068Zm8.029-.81.233-.4-4.12-5.895c-.9.084-1.794.165-2.69.261-.028,0-.056.169-.056.259,0,2.122,0,4.245,0,6.573Zm6.735-2.176a5.619,5.619,0,0,0-.567-.64c-1.888-1.447-3.807-2.854-5.667-4.336-1.122-.894-2.07-.543-3.045.178,1.309,2.048,2.6,4.081,3.916,6.1a.693.693,0,0,0,.6.249C148.735,691.077,150.275,690.557,151.949,690.006Zm-18.919-4.834a2.348,2.348,0,0,0-3.154.018c-1.7,1.341-3.441,2.626-5.173,3.924-.316.237-.669.423-1.005.633l.228.381,4.851,1.646Zm-2.073-2.728c3.653,3.1,10.772,2.635,13.692-.019A31.33,31.33,0,0,0,130.956,682.444Zm-1.006.788a4.643,4.643,0,0,0-1.692-.123,32.172,32.172,0,0,0-8.183,4.056c-.188.136-.354.3-.665.571.973.528,1.821,1.016,2.7,1.441a.829.829,0,0,0,.725-.1C125.131,687.217,127.407,685.329,129.95,683.232Zm15.922.014c2.421,1.981,4.727,3.876,7.049,5.752a.73.73,0,0,0,.629.124c.9-.46,1.768-.973,2.672-1.483a1.732,1.732,0,0,0-.233-.29,27.9,27.9,0,0,0-8.974-4.285A2.871,2.871,0,0,0,145.872,683.246Z" transform="translate(-99.595 -680.377)"></path><path class="a" d="M159.076,950.4l-3.583,4.963,3.294,1.927a31.054,31.054,0,0,0,6.021-6.323c.595-.813.6-.811,1.867-.613a32.654,32.654,0,0,1-27.032,15.085c-13.322.326-24.082-7.828-28.156-15.1a1.421,1.421,0,0,1,1.726.589c1.77,2.021,3.649,3.947,5.481,5.915a.882.882,0,0,0,1.293.14c.829-.536,1.7-1.01,2.595-1.534l-3.634-5.041c.9-.347,1.384-.212,1.858.507a40.569,40.569,0,0,0,2.6,3.385,1.018,1.018,0,0,0,.83.357c1.725-.583,3.427-1.237,5.234-1.9l-.978-2.389c.811-.3,1.264-.131,1.615.621.662,1.42.7,1.371,2.237,1.163,1.959-.266,3.924-.477,5.952-.719l.132-1.033c1.111-.3,1.111-.3,1.341,1l7.5.964c.831-.476.417-2.457,2.369-2.031l-.982,2.419c.368.127.733.248,1.094.38,1.279.467,2.547.969,3.843,1.382a1.138,1.138,0,0,0,.995-.229,36.492,36.492,0,0,0,2.49-3.237A1.451,1.451,0,0,1,159.076,950.4Zm-19.307,2.364v7.059c.518.091.979.135,1.418.257a1.55,1.55,0,0,0,2.009-.8c.408-.724.974-1.358,1.42-2.063.7-1.112,1.368-2.251,2.2-3.628Zm-8.2.792-.18.348c1.378,2,2.751,4.011,4.146,6a.7.7,0,0,0,.544.235c.758-.072,1.511-.2,2.224-.3v-7.079Zm2.643,7.086c-1.306-2.1-2.591-4.174-3.9-6.237-.093-.148-.363-.331-.485-.292-1.621.519-3.23,1.076-4.993,1.674a33.57,33.57,0,0,0,6.324,5.012A2.4,2.4,0,0,0,134.214,960.638Zm13.937-6.661-4.211,6.654c1.553.923,1.553.924,3.01.051.451-.27.909-.531,1.343-.826a25.19,25.19,0,0,0,4.844-4.147Zm-2.095,9.4c-3.887-3.134-11.282-2.535-13.86.02A31.019,31.019,0,0,0,146.056,963.38Zm1.151-.967c.563.511.566.519,1.334.271a28.862,28.862,0,0,0,9.046-4.566c-1-.544-1.874-1.05-2.782-1.494a.818.818,0,0,0-.71.119C151.8,958.611,149.518,960.5,147.207,962.413Zm-16.208.13c-2.476-2.023-4.765-3.9-7.069-5.76a.738.738,0,0,0-.621-.149c-.91.471-1.792.995-2.791,1.562a28.282,28.282,0,0,0,9.362,4.563C130.207,962.847,130.618,962.624,131,962.543Z" transform="translate(-100.584 -900.03)"></path><g transform="translate(89.424 4.717)"><path class="a" d="M533.7,724.981V711.335h3.315v13.646Z" transform="translate(-533.699 -710.294)"></path><path class="a" d="M568.971,713.363a2.978,2.978,0,0,0-1.108-.858,3.126,3.126,0,0,0-1.32-.318,3.912,3.912,0,0,0-.665.058,1.717,1.717,0,0,0-.607.222,1.5,1.5,0,0,0-.453.424,1.127,1.127,0,0,0-.183.665,1.072,1.072,0,0,0,.145.578,1.287,1.287,0,0,0,.424.4,3.76,3.76,0,0,0,.665.318q.386.144.867.3.694.231,1.446.511a5.41,5.41,0,0,1,1.368.742,3.9,3.9,0,0,1,1.022,1.147,3.3,3.3,0,0,1,.4,1.706,4.456,4.456,0,0,1-.434,2.033,4.054,4.054,0,0,1-1.166,1.417,5,5,0,0,1-1.677.829,7.064,7.064,0,0,1-1.947.27,8.043,8.043,0,0,1-2.833-.511,6,6,0,0,1-2.274-1.455l2.159-2.2a3.982,3.982,0,0,0,1.32,1.031,3.579,3.579,0,0,0,1.629.414,3.271,3.271,0,0,0,.713-.077,1.778,1.778,0,0,0,.607-.251,1.254,1.254,0,0,0,.414-.463,1.457,1.457,0,0,0,.154-.694,1.1,1.1,0,0,0-.193-.655,1.889,1.889,0,0,0-.549-.492,4.458,4.458,0,0,0-.887-.4q-.531-.183-1.2-.4a11.472,11.472,0,0,1-1.282-.5,4.288,4.288,0,0,1-1.118-.742,3.43,3.43,0,0,1-.79-1.1,3.72,3.72,0,0,1-.3-1.571,3.861,3.861,0,0,1,.463-1.947,4.021,4.021,0,0,1,1.214-1.33,5.219,5.219,0,0,1,1.7-.761,7.694,7.694,0,0,1,1.908-.241,7.092,7.092,0,0,1,2.361.424,6.085,6.085,0,0,1,2.11,1.253Z" transform="translate(-555.633 -708.775)"></path><path class="a" d="M639.346,716.5a7.612,7.612,0,0,1-.559,2.959,6.742,6.742,0,0,1-1.552,2.294,6.905,6.905,0,0,1-2.361,1.475,8.7,8.7,0,0,1-5.927,0,6.92,6.92,0,0,1-2.351-1.475,6.73,6.73,0,0,1-1.551-2.294,7.605,7.605,0,0,1-.559-2.959,7.516,7.516,0,0,1,.559-2.958,6.474,6.474,0,0,1,1.551-2.245,6.911,6.911,0,0,1,2.351-1.426,9.012,9.012,0,0,1,5.927,0,6.9,6.9,0,0,1,2.361,1.426,6.486,6.486,0,0,1,1.552,2.245A7.522,7.522,0,0,1,639.346,716.5Zm-3.527,0a4.683,4.683,0,0,0-.289-1.658,3.957,3.957,0,0,0-.8-1.32,3.691,3.691,0,0,0-1.234-.867,3.908,3.908,0,0,0-1.59-.318,3.793,3.793,0,0,0-2.814,1.185,3.751,3.751,0,0,0-.8,1.32,5.117,5.117,0,0,0,.01,3.364,4.032,4.032,0,0,0,.8,1.339,3.645,3.645,0,0,0,1.224.877,4.086,4.086,0,0,0,3.161,0,3.753,3.753,0,0,0,1.233-.877,3.949,3.949,0,0,0,.81-1.339A4.875,4.875,0,0,0,635.818,716.5Z" transform="translate(-607.601 -708.691)"></path><path class="a" d="M709.989,721.428l-2.178-.713,5.956-14.977,2.178.752Z" transform="translate(-675.43 -705.738)"></path><path class="a" d="M759.113,724.981V711.335h3.315v13.646Z" transform="translate(-717.191 -710.294)"></path><path class="a" d="M792.069,724.981V711.335h9.175v2.776h-5.994v2.583h5.667v2.641h-5.667v2.834h6.341v2.814Z" transform="translate(-744.018 -710.294)"></path><path class="a" d="M861.965,723.138a7.31,7.31,0,0,1-3.065.607,7.991,7.991,0,0,1-2.92-.52,6.742,6.742,0,0,1-3.865-3.759,7.993,7.993,0,0,1,.01-5.9A6.6,6.6,0,0,1,853.7,711.3a6.958,6.958,0,0,1,2.352-1.436,8.429,8.429,0,0,1,5.754.01,5.447,5.447,0,0,1,2.265,1.494l-2.236,2.236a2.767,2.767,0,0,0-1.214-.945,4.033,4.033,0,0,0-1.542-.308,3.906,3.906,0,0,0-1.59.318,3.733,3.733,0,0,0-1.243.877,4,4,0,0,0-.81,1.32,4.662,4.662,0,0,0-.289,1.667,4.8,4.8,0,0,0,.289,1.7,3.952,3.952,0,0,0,.8,1.32,3.6,3.6,0,0,0,1.224.858,3.892,3.892,0,0,0,1.561.308,3.63,3.63,0,0,0,1.715-.386,3.325,3.325,0,0,0,1.176-1l2.294,2.159A6.5,6.5,0,0,1,861.965,723.138Z" transform="translate(-792.443 -708.691)"></path></g><g transform="translate(89.038 26.162)"><path class="a" d="M531.914,835.062v-2.694l5.32-4.81a5.046,5.046,0,0,0,.81-.981,2.087,2.087,0,0,0,.308-1.116,1.581,1.581,0,0,0-.463-1.183,1.859,1.859,0,0,0-2.554.116,2.568,2.568,0,0,0-.607,1.494l-3.1-.424a4.874,4.874,0,0,1,.569-1.854,4.814,4.814,0,0,1,1.147-1.386,4.944,4.944,0,0,1,1.59-.873,5.923,5.923,0,0,1,1.9-.3,6.708,6.708,0,0,1,1.831.251,4.772,4.772,0,0,1,1.581.771,3.852,3.852,0,0,1,1.108,1.311,3.933,3.933,0,0,1,.414,1.85,4.228,4.228,0,0,1-.193,1.32,4.4,4.4,0,0,1-.53,1.089,6.281,6.281,0,0,1-.771.935q-.434.434-.9.858l-3.161,2.814h5.57v2.814Z" transform="translate(-531.625 -821.049)"></path><path class="a" d="M604.3,836.664h-3.759l5.532-10.871h-6.457v-2.776h9.907V825.6Z" transform="translate(-586.969 -822.652)"></path><path class="a" d="M671.248,836.664h-3.759l5.532-10.871h-6.457v-2.776h9.907V825.6Z" transform="translate(-641.469 -822.652)"></path><path class="a" d="M742.431,828.2a12.773,12.773,0,0,1-.289,2.756,7.047,7.047,0,0,1-.925,2.3,4.6,4.6,0,0,1-4.106,2.168,4.659,4.659,0,0,1-4.134-2.168,6.907,6.907,0,0,1-.935-2.3,12.758,12.758,0,0,1-.289-2.756,12.625,12.625,0,0,1,.289-2.747,6.7,6.7,0,0,1,.935-2.274,4.826,4.826,0,0,1,1.667-1.552,4.936,4.936,0,0,1,2.467-.578,4.882,4.882,0,0,1,2.458.578,4.77,4.77,0,0,1,1.648,1.552,6.832,6.832,0,0,1,.925,2.274A12.64,12.64,0,0,1,742.431,828.2Zm-3.315,0q0-.636-.077-1.407a7.029,7.029,0,0,0-.289-1.436,3.124,3.124,0,0,0-.607-1.118,1.3,1.3,0,0,0-1.031-.453,1.333,1.333,0,0,0-1.041.453,3.146,3.146,0,0,0-.627,1.118,6.6,6.6,0,0,0-.3,1.436q-.077.771-.077,1.407,0,.656.077,1.436a6.6,6.6,0,0,0,.3,1.446,3.139,3.139,0,0,0,.627,1.118,1.331,1.331,0,0,0,1.041.453,1.3,1.3,0,0,0,1.031-.453,3.118,3.118,0,0,0,.607-1.118,7.03,7.03,0,0,0,.289-1.446Q739.116,828.855,739.116,828.2Z" transform="translate(-694.534 -821.049)"></path><path class="a" d="M804.79,836.664V826.642l-2.544,1.966-1.677-2.294,4.49-3.3h2.951v13.646Z" transform="translate(-750.552 -822.652)"></path><path class="a" d="M871.713,845.973a1.714,1.714,0,0,1-.154.723,2,2,0,0,1-.4.588,1.89,1.89,0,0,1-1.311.54,2,2,0,0,1-.732-.135,1.808,1.808,0,0,1-.607-.386,1.938,1.938,0,0,1-.415-.578,1.649,1.649,0,0,1-.154-.713,1.714,1.714,0,0,1,.154-.723,1.909,1.909,0,0,1,.415-.588,1.946,1.946,0,0,1,.607-.4,1.885,1.885,0,0,1,.732-.144,1.839,1.839,0,0,1,.713.144,1.917,1.917,0,0,1,.6.385,1.88,1.88,0,0,1,.4.578A1.673,1.673,0,0,1,871.713,845.973Zm0,6.187a1.715,1.715,0,0,1-.154.723,1.872,1.872,0,0,1-.4.578,1.913,1.913,0,0,1-.6.386,1.838,1.838,0,0,1-.713.145,2.009,2.009,0,0,1-.732-.135,1.81,1.81,0,0,1-.607-.386,1.94,1.94,0,0,1-.415-.578,1.648,1.648,0,0,1-.154-.713,1.716,1.716,0,0,1,.154-.723,1.911,1.911,0,0,1,.415-.588,1.946,1.946,0,0,1,.607-.4,1.885,1.885,0,0,1,.732-.145,1.839,1.839,0,0,1,.713.145,1.916,1.916,0,0,1,.6.385,1.881,1.881,0,0,1,.4.578A1.716,1.716,0,0,1,871.713,852.16Z" transform="translate(-805.389 -839.863)"></path><path class="a" d="M926.986,835.062v-2.694l5.32-4.81a5.043,5.043,0,0,0,.809-.981,2.085,2.085,0,0,0,.309-1.116,1.581,1.581,0,0,0-.463-1.183,1.859,1.859,0,0,0-2.554.116,2.566,2.566,0,0,0-.607,1.494l-3.1-.424a4.875,4.875,0,0,1,.569-1.854,4.81,4.81,0,0,1,1.147-1.386,4.945,4.945,0,0,1,1.59-.873,5.922,5.922,0,0,1,1.9-.3,6.709,6.709,0,0,1,1.831.251,4.768,4.768,0,0,1,1.58.771,3.85,3.85,0,0,1,1.108,1.311,3.933,3.933,0,0,1,.414,1.85,4.229,4.229,0,0,1-.193,1.32,4.4,4.4,0,0,1-.53,1.089,6.282,6.282,0,0,1-.771.935q-.434.434-.9.858l-3.161,2.814h5.57v2.814Z" transform="translate(-853.223 -821.049)"></path><path class="a" d="M1003.6,828.2a12.773,12.773,0,0,1-.289,2.756,7.045,7.045,0,0,1-.925,2.3,4.595,4.595,0,0,1-4.106,2.168,4.659,4.659,0,0,1-4.134-2.168,6.91,6.91,0,0,1-.935-2.3,12.766,12.766,0,0,1-.289-2.756,12.633,12.633,0,0,1,.289-2.747,6.7,6.7,0,0,1,.935-2.274,4.825,4.825,0,0,1,1.667-1.552,4.935,4.935,0,0,1,2.467-.578,4.883,4.883,0,0,1,2.458.578,4.769,4.769,0,0,1,1.648,1.552,6.829,6.829,0,0,1,.925,2.274A12.64,12.64,0,0,1,1003.6,828.2Zm-3.315,0q0-.636-.077-1.407a7.029,7.029,0,0,0-.289-1.436,3.122,3.122,0,0,0-.607-1.118,1.3,1.3,0,0,0-1.031-.453,1.333,1.333,0,0,0-1.041.453,3.147,3.147,0,0,0-.627,1.118,6.6,6.6,0,0,0-.3,1.436q-.077.771-.077,1.407,0,.656.077,1.436a6.6,6.6,0,0,0,.3,1.446,3.141,3.141,0,0,0,.627,1.118,1.331,1.331,0,0,0,1.041.453,1.3,1.3,0,0,0,1.031-.453,3.116,3.116,0,0,0,.607-1.118,7.03,7.03,0,0,0,.289-1.446Q1000.286,828.855,1000.286,828.2Z" transform="translate(-907.132 -821.049)"></path><path class="a" d="M1065.96,836.664V826.642l-2.544,1.966-1.677-2.294,4.49-3.3h2.951v13.646Z" transform="translate(-963.15 -822.652)"></path><path class="a" d="M1137.354,825.925a5.567,5.567,0,0,1-.424,2.207,12.786,12.786,0,0,1-1.1,2.014l-3.293,4.915h-3.909l3.395-4.7.039-.058a2.4,2.4,0,0,1-.472.116,3.322,3.322,0,0,1-.49.039,4.636,4.636,0,0,1-1.713-.318,4.339,4.339,0,0,1-1.424-.906,4.379,4.379,0,0,1-1.347-3.229,4.945,4.945,0,0,1,.423-2.082,4.55,4.55,0,0,1,1.154-1.561,5.106,5.106,0,0,1,1.712-.973,6.631,6.631,0,0,1,4.175,0,5,5,0,0,1,1.7.973,4.66,4.66,0,0,1,1.145,1.542A4.723,4.723,0,0,1,1137.354,825.925Zm-3.219-.039a2.238,2.238,0,0,0-.571-1.532,1.974,1.974,0,0,0-1.558-.646,2.1,2.1,0,0,0-1.578.607,2.183,2.183,0,0,0-.59,1.59,2.126,2.126,0,0,0,.581,1.532,2.044,2.044,0,0,0,1.549.607,2.055,2.055,0,0,0,2.168-2.159Z" transform="translate(-1015.963 -821.049)"></path></g><g transform="translate(88.787 46.007)"><path class="a" d="M540.686,946.5a7.308,7.308,0,0,1-3.065.607,8,8,0,0,1-2.92-.52,6.742,6.742,0,0,1-3.865-3.759,7.994,7.994,0,0,1,.01-5.9,6.6,6.6,0,0,1,1.571-2.265,6.96,6.96,0,0,1,2.352-1.436,8.428,8.428,0,0,1,5.754.01,5.445,5.445,0,0,1,2.265,1.494l-2.236,2.236a2.767,2.767,0,0,0-1.214-.944,4.033,4.033,0,0,0-1.542-.309,3.907,3.907,0,0,0-1.59.318,3.733,3.733,0,0,0-1.243.877,3.994,3.994,0,0,0-.81,1.32,4.662,4.662,0,0,0-.289,1.667,4.8,4.8,0,0,0,.289,1.7,3.943,3.943,0,0,0,.8,1.32,3.6,3.6,0,0,0,1.224.858,3.888,3.888,0,0,0,1.561.308,3.632,3.632,0,0,0,1.715-.385,3.328,3.328,0,0,0,1.176-1l2.294,2.159A6.5,6.5,0,0,1,540.686,946.5Z" transform="translate(-530.278 -931.807)"></path><path class="a" d="M612.312,960.031v.385a3.418,3.418,0,0,1-.019.366h-6.958a1.675,1.675,0,0,0,.241.733,2.078,2.078,0,0,0,.52.569,2.553,2.553,0,0,0,1.532.511,2.657,2.657,0,0,0,1.272-.28,2.513,2.513,0,0,0,.848-.723l2.2,1.388a4.447,4.447,0,0,1-1.783,1.513,5.9,5.9,0,0,1-2.573.53,6.145,6.145,0,0,1-2.043-.337,4.956,4.956,0,0,1-1.687-.983,4.553,4.553,0,0,1-1.137-1.59,5.321,5.321,0,0,1-.414-2.159,5.406,5.406,0,0,1,.4-2.13,4.813,4.813,0,0,1,1.1-1.619,4.9,4.9,0,0,1,1.638-1.031,5.607,5.607,0,0,1,2.043-.366,5.175,5.175,0,0,1,1.947.356,4.243,4.243,0,0,1,1.523,1.031,4.772,4.772,0,0,1,.993,1.638A6.312,6.312,0,0,1,612.312,960.031Zm-2.91-1.214a1.9,1.9,0,0,0-.472-1.291,1.783,1.783,0,0,0-1.417-.54,2.4,2.4,0,0,0-.848.145,2.2,2.2,0,0,0-.674.4,1.958,1.958,0,0,0-.463.588,1.72,1.72,0,0,0-.193.7Z" transform="translate(-588.912 -949.777)"></path><path class="a" d="M672.893,957.887a2.45,2.45,0,0,0-.414-.077q-.2-.019-.4-.019a2.258,2.258,0,0,0-1.07.231,2.178,2.178,0,0,0-.694.557,2.111,2.111,0,0,0-.376.711,2.379,2.379,0,0,0-.116.673v4.921h-3.161V955.3h3.045v1.388h.039a3.127,3.127,0,0,1,1.041-1.2,2.68,2.68,0,0,1,1.561-.466,3.635,3.635,0,0,1,.376.019,1.461,1.461,0,0,1,.3.058Z" transform="translate(-641.302 -949.946)"></path><path class="a" d="M705.909,947.766v3.676a1.653,1.653,0,0,0,.26,1.016,1.114,1.114,0,0,0,.935.339,3.345,3.345,0,0,0,.492-.039,1.685,1.685,0,0,0,.434-.116l.038,2.313a5.247,5.247,0,0,1-.829.2,5.863,5.863,0,0,1-1,.087,4.72,4.72,0,0,1-1.619-.241,2.5,2.5,0,0,1-1.051-.7,2.729,2.729,0,0,1-.569-1.082,5.255,5.255,0,0,1-.174-1.4v-4.058h-1.542v-2.351h1.523v-2.525h3.1v2.525h2.255v2.351Z" transform="translate(-669.48 -940.075)"></path><path class="a" d="M748.849,932.395a1.634,1.634,0,0,1-.145.684,1.729,1.729,0,0,1-.964.915,1.872,1.872,0,0,1-.7.135,1.77,1.77,0,0,1-1.291-.511,1.654,1.654,0,0,1-.521-1.224,1.684,1.684,0,0,1,.135-.665,1.57,1.57,0,0,1,.385-.549,2.08,2.08,0,0,1,.578-.376,1.746,1.746,0,0,1,.713-.145,1.879,1.879,0,0,1,.7.135,1.729,1.729,0,0,1,.964.916A1.633,1.633,0,0,1,748.849,932.395Zm-3.392,12.664v-9.6h3.161v9.6Z" transform="translate(-705.25 -930.12)"></path><path class="a" d="M777.5,930.456a2.707,2.707,0,0,0-.4-.1,2.81,2.81,0,0,0-.463-.039,1.432,1.432,0,0,0-.713.154,1.142,1.142,0,0,0-.424.414,1.729,1.729,0,0,0-.212.588,3.754,3.754,0,0,0-.058.655v.964h2.139v2.351h-2.139V942.7H772.06v-7.247h-1.754V933.1h1.754v-.925a7.178,7.178,0,0,1,.193-1.686,3.652,3.652,0,0,1,.665-1.407,3.249,3.249,0,0,1,1.272-.964,4.907,4.907,0,0,1,1.995-.357,6.632,6.632,0,0,1,.8.048,4.515,4.515,0,0,1,.723.144Z" transform="translate(-725.666 -927.758)"></path><path class="a" d="M817.251,932.395a1.635,1.635,0,0,1-.145.684,1.731,1.731,0,0,1-.964.915,1.874,1.874,0,0,1-.7.135,1.77,1.77,0,0,1-1.291-.511,1.653,1.653,0,0,1-.52-1.224,1.684,1.684,0,0,1,.135-.665,1.572,1.572,0,0,1,.385-.549,2.08,2.08,0,0,1,.578-.376,1.748,1.748,0,0,1,.713-.145,1.881,1.881,0,0,1,.7.135,1.731,1.731,0,0,1,.964.916A1.634,1.634,0,0,1,817.251,932.395Zm-3.392,12.664v-9.6h3.161v9.6Z" transform="translate(-760.931 -930.12)"></path><path class="a" d="M852.751,960.031v.385a3.371,3.371,0,0,1-.019.366h-6.958a1.677,1.677,0,0,0,.241.733,2.082,2.082,0,0,0,.521.569,2.552,2.552,0,0,0,1.532.511,2.656,2.656,0,0,0,1.272-.28,2.51,2.51,0,0,0,.848-.723l2.2,1.388a4.447,4.447,0,0,1-1.783,1.513,5.905,5.905,0,0,1-2.573.53,6.145,6.145,0,0,1-2.043-.337,4.955,4.955,0,0,1-1.687-.983,4.553,4.553,0,0,1-1.137-1.59,5.32,5.32,0,0,1-.414-2.159,5.4,5.4,0,0,1,.4-2.13,4.813,4.813,0,0,1,1.1-1.619,4.9,4.9,0,0,1,1.638-1.031,5.607,5.607,0,0,1,2.043-.366,5.174,5.174,0,0,1,1.947.356A4.243,4.243,0,0,1,851.4,956.2a4.768,4.768,0,0,1,.993,1.638A6.306,6.306,0,0,1,852.751,960.031Zm-2.91-1.214a1.9,1.9,0,0,0-.472-1.291,1.783,1.783,0,0,0-1.417-.54,2.4,2.4,0,0,0-.848.145,2.2,2.2,0,0,0-.674.4,1.956,1.956,0,0,0-.463.588,1.719,1.719,0,0,0-.193.7Z" transform="translate(-784.636 -949.777)"></path><path class="a" d="M912.265,944.3v-1.253h-.038a3,3,0,0,1-1.32,1.128,4.306,4.306,0,0,1-1.822.4,4.253,4.253,0,0,1-1.927-.424,4.416,4.416,0,0,1-1.436-1.128,4.947,4.947,0,0,1-.9-1.629,6.053,6.053,0,0,1-.308-1.927,5.8,5.8,0,0,1,.318-1.918,5,5,0,0,1,.906-1.609,4.225,4.225,0,0,1,3.306-1.5,3.661,3.661,0,0,1,1.793.4,3.98,3.98,0,0,1,1.137.887h.039v-5.994h3.161V944.3Zm-.116-4.819a2.6,2.6,0,0,0-.164-.906,2.564,2.564,0,0,0-.463-.79,2.307,2.307,0,0,0-.723-.559,2.127,2.127,0,0,0-.964-.212,2.169,2.169,0,0,0-.983.212,2.217,2.217,0,0,0-1.147,1.33,2.907,2.907,0,0,0-.145.906,3,3,0,0,0,.145.916,2.352,2.352,0,0,0,.434.8,2.132,2.132,0,0,0,1.7.771,2.125,2.125,0,0,0,.964-.212,2.3,2.3,0,0,0,.723-.559,2.561,2.561,0,0,0,.463-.79A2.6,2.6,0,0,0,912.15,939.48Z" transform="translate(-834.917 -929.361)"></path></g></svg> 