<?xml version="1.0" encoding="UTF-8"?> <svg xmlns="http://www.w3.org/2000/svg" width="180.5" height="48.112" viewBox="0 0 180.5 48.112"><defs><style>.a{isolation:isolate;}.b{fill:#707171;}</style></defs><g class="a" transform="translate(-389.426 -1096.386)"><path class="b" d="M424.331,1143.4a41.188,41.188,0,0,1-9.784,1.1,28.375,28.375,0,0,1-10.107-1.744,23.3,23.3,0,0,1-7.943-4.908,22.354,22.354,0,0,1-5.2-7.589,26.874,26.874,0,0,1,.031-19.793,22.129,22.129,0,0,1,5.264-7.589,23.318,23.318,0,0,1,7.879-4.811,27.8,27.8,0,0,1,9.751-1.679,29.984,29.984,0,0,1,10.074,1.646,20.858,20.858,0,0,1,7.556,4.424l-6.974,7.943a12.1,12.1,0,0,0-4.263-3.067,14.463,14.463,0,0,0-6.006-1.195,13.318,13.318,0,0,0-5.36,1.065,12.879,12.879,0,0,0-4.262,2.971,13.464,13.464,0,0,0-2.809,4.52,15.847,15.847,0,0,0-1,5.716,17.851,17.851,0,0,0,.9,5.812,12.474,12.474,0,0,0,2.68,4.553,12.2,12.2,0,0,0,4.391,2.971,15.727,15.727,0,0,0,5.974,1.065,22.41,22.41,0,0,0,3.681-.29,13.7,13.7,0,0,0,3.228-.936v-8.331H413.32v-8.912h18.857v24.218A35.121,35.121,0,0,1,424.331,1143.4Z" transform="translate(0 0)"></path><path class="b" d="M503.811,1120.817a22.525,22.525,0,0,1-2.228,10.365,20.9,20.9,0,0,1-5.877,7.168,24.491,24.491,0,0,1-8.234,4.133,33.34,33.34,0,0,1-9.3,1.324h-17.05v-45.723h16.532a40.9,40.9,0,0,1,9.558,1.13,24.008,24.008,0,0,1,8.4,3.746,19.183,19.183,0,0,1,5.942,7.007A23.543,23.543,0,0,1,503.811,1120.817Zm-11.5,0a14.487,14.487,0,0,0-1.259-6.426,10.842,10.842,0,0,0-3.359-4.068,13.464,13.464,0,0,0-4.779-2.163,23.565,23.565,0,0,0-5.522-.645h-5.489v26.735h5.231a23.759,23.759,0,0,0,5.715-.677,13.509,13.509,0,0,0,4.843-2.228,11.043,11.043,0,0,0,3.359-4.133A14.519,14.519,0,0,0,492.316,1120.817Z" transform="translate(-19.905 -0.472)"></path><path class="b" d="M565,1112.162a14.033,14.033,0,0,1-1.484,6.749,12.213,12.213,0,0,1-4,4.423,17.652,17.652,0,0,1-5.812,2.455,29.846,29.846,0,0,1-6.846.775H541.36v17.242H530.317v-45.723h16.791a31.576,31.576,0,0,1,7.007.743,16.53,16.53,0,0,1,5.683,2.39,11.587,11.587,0,0,1,3.81,4.327A14.272,14.272,0,0,1,565,1112.162Zm-11.043.065a4.94,4.94,0,0,0-.645-2.648,4.514,4.514,0,0,0-1.745-1.614,7.482,7.482,0,0,0-2.486-.776A20.913,20.913,0,0,0,546.2,1107H541.36v10.784h4.65a16.528,16.528,0,0,0,2.97-.258,7.953,7.953,0,0,0,2.551-.9,4.857,4.857,0,0,0,1.776-1.711A5.106,5.106,0,0,0,553.953,1112.227Z" transform="translate(-39.114 -0.472)"></path><path class="b" d="M612.009,1143.807l-9.927-18.147h-3.764v18.147H587.533v-45.723H604.97a30.279,30.279,0,0,1,6.426.678,16.729,16.729,0,0,1,5.619,2.292,12.018,12.018,0,0,1,3.972,4.263,13.321,13.321,0,0,1,1.484,6.587,12.154,12.154,0,0,1-2.518,7.814,13.737,13.737,0,0,1-6.975,4.521l11.947,19.568Zm-.452-31.709a4.565,4.565,0,0,0-.682-2.616,4.655,4.655,0,0,0-1.752-1.55,7.661,7.661,0,0,0-2.4-.743,17.9,17.9,0,0,0-2.563-.193h-5.906v10.655h5.256a17.762,17.762,0,0,0,2.792-.226,8.917,8.917,0,0,0,2.594-.807,4.685,4.685,0,0,0,2.661-4.521Z" transform="translate(-54.999 -0.472)"></path></g></svg> 