<?xml version="1.0" encoding="UTF-8"?> <svg xmlns="http://www.w3.org/2000/svg" xmlns:xlink="http://www.w3.org/1999/xlink" width="812.5" height="803.25" viewBox="0 0 812.5 803.25"><defs><linearGradient id="linear-gradient" x1="0.5" y1="0.387" x2="0.5" y2="1" gradientUnits="objectBoundingBox"><stop offset="0" stop-color="#fff" stop-opacity="0.361"></stop><stop offset="1" stop-color="#eaeaea"></stop></linearGradient></defs><g id="Group_9" data-name="Group 9" transform="translate(-829.5 -1363.75)"><rect id="Rectangle_4503" data-name="Rectangle 4503" width="260" height="156" rx="22" transform="translate(1106 1363.75)" fill="url(#linear-gradient)"></rect><g id="Group_7" data-name="Group 7"><g id="Component_73_1" data-name="Component 73 – 1" transform="translate(1382 1707.75)"><rect id="Rectangle_18259" data-name="Rectangle 18259" width="259" height="259" rx="22" fill="#06d665"></rect><g id="Group"><text id="Value_Added_" data-name="Value Added " transform="translate(57.412 179.25)" fill="#f8f8f8" font-size="24" font-family="AvenirNext-DemiBold, Avenir Next" font-weight="300" letter-spacing="0.005em"><tspan x="0" y="0">Value Added </tspan></text><text id="Services" transform="translate(83.992 214.25)" fill="#f8f8f8" font-size="24" font-family="AvenirNext-DemiBold, Avenir Next" font-weight="300" letter-spacing="0.005em"><tspan x="0" y="0">Services</tspan></text></g><g id="Group_3" data-name="Group 3" transform="translate(15779 21711.25)"><path id="Path_31789" data-name="Path 31789" d="M36.459,18H29.427l3.516,9.666Z" transform="translate(-15681.95 -21658.504)" fill="#fff"></path><path id="Path_31790" data-name="Path 31790" d="M31.266,14H27.05L25,16.733h3.534Z" transform="translate(-15683.572 -21659.969)" fill="#fff"></path><path id="Path_31791" data-name="Path 31791" d="M31.1,26.134,28.143,18H25Z" transform="translate(-15683.572 -21658.504)" fill="#fff"></path><path id="Path_31792" data-name="Path 31792" d="M30.414,16.581h4.334l-2.167-2.167Z" transform="translate(-15681.589 -21659.818)" fill="#fff"></path><path id="Path_31793" data-name="Path 31793" d="M3,49.728,21.564,68.292l4.9-4.9L7.9,44.828Zm6.667,3.7-4.1-4.1L7.5,47.4l4.1,4.1Z" transform="translate(-15691.634 -21648.674)" fill="#fff"></path><path id="Path_31794" data-name="Path 31794" d="M74.83,35h-.283a3.371,3.371,0,0,0-2.243.853L61.353,45.587a1.366,1.366,0,0,1-.907.344L45.232,43.2l7.994-2.186a2.76,2.76,0,1,0-1.6-5.281l-13.978,4.66a1.366,1.366,0,0,1-.432.075H17.286l-6.98,9L24.919,64.077l10.137-9.693a1.366,1.366,0,0,1,.794-.254h26.8L77.116,40.876A3.378,3.378,0,0,0,74.83,35Z" transform="translate(-15688.956 -21652.275)" fill="#fff"></path><path id="Path_31795" data-name="Path 31795" d="M40.636,18H37.493l-2.958,8.134Z" transform="translate(-15680.078 -21658.504)" fill="#fff"></path><path id="Path_31796" data-name="Path 31796" d="M38.631,14H34.414l2.733,2.733H40.68Z" transform="translate(-15680.123 -21659.969)" fill="#fff"></path><path id="Path_31797" data-name="Path 31797" d="M54.466,6.733V4H51.733V6.733H49V9.466h2.733V12.2h2.733V9.466H57.2V6.733Z" transform="translate(-15674.778 -21663.633)" fill="#fff"></path><rect id="Rectangle_18260" data-name="Rectangle 18260" width="3" height="3" transform="translate(-15611 -21661)" fill="#fff"></rect><rect id="Rectangle_18261" data-name="Rectangle 18261" width="3" height="3" transform="translate(-15622 -21646)" fill="#fff"></rect><path id="Path_31798" data-name="Path 31798" d="M14.466,15.733V13H11.733v2.733H9v2.733h2.733V21.2h2.733V18.466H17.2V15.733Z" transform="translate(-15689.435 -21660.336)" fill="#fff"></path><rect id="Rectangle_18262" data-name="Rectangle 18262" width="3" height="3" transform="translate(-15690 -21654)" fill="#fff"></rect><rect id="Rectangle_18263" data-name="Rectangle 18263" width="3" height="3" transform="translate(-15678 -21661)" fill="#fff"></rect><path id="Path_31799" data-name="Path 31799" d="M59.39,41.26V13.931a1.366,1.366,0,0,0-1.366-1.366H47.894a9.565,9.565,0,0,0,4.664-8.2A1.377,1.377,0,0,0,51.191,3a9.565,9.565,0,0,0-8.2,4.664A9.565,9.565,0,0,0,34.794,3a1.377,1.377,0,0,0-1.366,1.366,9.565,9.565,0,0,0,4.664,8.2H27.962A1.366,1.366,0,0,0,26.6,13.931V41.26H2v5.466H83.985V41.26ZM29.6,22.95a1.366,1.366,0,0,1,0-1.64l4.1-5.466a1.366,1.366,0,0,1,1.093-.547h16.4a1.366,1.366,0,0,1,1.093.547l4.1,5.466a1.366,1.366,0,0,1,0,1.64L45.726,37.161a3.416,3.416,0,0,1-2.733,1.366h0a3.416,3.416,0,0,1-2.733-1.366Z" transform="translate(-15692 -21664)" fill="#fff"></path></g></g><g id="Component_74_1" data-name="Component 74 – 1" transform="translate(1382 1432)"><rect id="Rectangle_18264" data-name="Rectangle 18264" width="259" height="259" rx="22" fill="#6369d1"></rect><g id="Group-2" data-name="Group"><text id="Revenue_" data-name="Revenue " transform="translate(81.448 174)" fill="#f8f8f8" font-size="24" font-family="AvenirNext-DemiBold, Avenir Next" font-weight="300" letter-spacing="0.005em"><tspan x="0" y="0">Revenue </tspan></text><text id="Management" transform="translate(55.132 209)" fill="#f8f8f8" font-size="24" font-family="AvenirNext-DemiBold, Avenir Next" font-weight="300" letter-spacing="0.005em"><tspan x="0" y="0">Management</tspan></text></g><g id="Group_4" data-name="Group 4" transform="translate(93 55.758)"><path id="Path_31800" data-name="Path 31800" d="M73.283,27.88v5.828h-7.95L44.591,63.347l-1.575,9.936H30.267l-1.575-9.936L7.95,33.708H0V27.88ZM62.912,4.789a9.482,9.482,0,1,1-9.482,9.482,9.482,9.482,0,0,1,9.482-9.482Zm.87,1.89V8.322a3.229,3.229,0,0,1,1.846,1.063,3.544,3.544,0,0,1,.822,2.271v.237l-1.73-.082a1.249,1.249,0,0,0,0-.135,1.808,1.808,0,0,0-.406-1.165,1.664,1.664,0,0,0-1.228-.536h-.169a1.745,1.745,0,0,0-1.232.464,1.6,1.6,0,0,0-.449.749,1.527,1.527,0,0,0-.01.807,1.014,1.014,0,0,0,.44.614h0l1.638.9h0l1.7.9.034.019A2.734,2.734,0,0,1,66.3,16.095a3.286,3.286,0,0,1-.019,1.73,3.456,3.456,0,0,1-.918,1.542A3.36,3.36,0,0,1,63.8,20.2v1.662h-1.74V20.22A3.229,3.229,0,0,1,60.2,19.157a3.544,3.544,0,0,1-.822-2.271c0-.092,0-.169,0-.237l1.735.082v.135a1.835,1.835,0,0,0,.406,1.165,1.673,1.673,0,0,0,1.227.536h.169a1.757,1.757,0,0,0,1.237-.464,1.635,1.635,0,0,0,.445-.749,1.528,1.528,0,0,0,.015-.807,1.03,1.03,0,0,0-.435-.609l-1.7-.9-.014-.01-1.633-.9-.019-.014a2.725,2.725,0,0,1-1.266-1.667,3.286,3.286,0,0,1,.019-1.73,3.423,3.423,0,0,1,.923-1.542,3.367,3.367,0,0,1,1.561-.836V6.679ZM10.371,4.789A9.479,9.479,0,1,1,3.662,7.564a9.482,9.482,0,0,1,6.709-2.775Zm.87,1.89V8.322a3.229,3.229,0,0,1,1.846,1.063,3.544,3.544,0,0,1,.822,2.271c0,.092,0,.169,0,.237l-1.735-.082v-.135a1.835,1.835,0,0,0-.406-1.165,1.673,1.673,0,0,0-1.227-.536h-.169a1.757,1.757,0,0,0-1.237.464,1.635,1.635,0,0,0-.445.749,1.528,1.528,0,0,0-.014.807,1.034,1.034,0,0,0,.44.614h0l1.638.9h0l1.691.9.034.019a2.725,2.725,0,0,1,1.266,1.667,3.286,3.286,0,0,1-.019,1.73,3.423,3.423,0,0,1-.923,1.542,3.367,3.367,0,0,1-1.561.836v1.662H9.5V20.22a3.229,3.229,0,0,1-1.846-1.063,3.544,3.544,0,0,1-.822-2.271c0-.092,0-.169,0-.237l1.73.082a1.249,1.249,0,0,0,0,.135,1.808,1.808,0,0,0,.406,1.165,1.664,1.664,0,0,0,1.227.536h.169A1.754,1.754,0,0,0,11.6,18.1a1.645,1.645,0,0,0,.449-.749,1.526,1.526,0,0,0,.01-.807,1.022,1.022,0,0,0-.43-.609l-1.7-.9-.014-.01-1.638-.9-.019-.014A2.734,2.734,0,0,1,7,12.449a3.286,3.286,0,0,1,.019-1.73,3.456,3.456,0,0,1,.918-1.542A3.36,3.36,0,0,1,9.5,8.341V6.679ZM36.641,0A11.618,11.618,0,1,1,25.024,11.618,11.618,11.618,0,0,1,36.641,0Zm1.068,2.315V4.33a3.931,3.931,0,0,1,2.257,1.3,4.354,4.354,0,0,1,1.01,2.788v.29l-2.126-.1V8.444a2.22,2.22,0,0,0-.5-1.43,2.031,2.031,0,0,0-1.5-.652h-.208a2.154,2.154,0,0,0-1.513.565,2.065,2.065,0,0,0-.546.918,1.819,1.819,0,0,0-.014.991,1.23,1.23,0,0,0,.536.749h0l2.006,1.107h0l2.073,1.1.043.029a3.324,3.324,0,0,1,1.546,2.039,4,4,0,0,1-.024,2.122,4.2,4.2,0,0,1-1.126,1.885A4.151,4.151,0,0,1,37.709,18.9v2.035H35.573V18.91a3.963,3.963,0,0,1-2.257-1.3,4.341,4.341,0,0,1-1.01-2.784v-.29l2.126.1v.169a2.216,2.216,0,0,0,.5,1.426,2.033,2.033,0,0,0,1.5.657h.208a2.156,2.156,0,0,0,1.513-.57A2.014,2.014,0,0,0,38.7,15.4a1.8,1.8,0,0,0,.014-.986,1.248,1.248,0,0,0-.527-.749L36.1,12.56l-.019-.01-2-1.106-.024-.014A3.346,3.346,0,0,1,32.51,9.386a4,4,0,0,1,.024-2.122,4.164,4.164,0,0,1,1.126-1.88,4.065,4.065,0,0,1,1.914-1.029V2.315ZM34.554,33.08h4.175l.8,4.021a8.887,8.887,0,0,1,2.9,1.677l3.881-1.319,1.044,1.807L48.4,41.078l-3.083,2.7a8.871,8.871,0,0,1,0,3.349l3.083,2.7-1.044,1.807-1.044,1.807L42.431,52.13a8.887,8.887,0,0,1-2.9,1.677l-.8,4.016H34.554l-.8-4.016a8.887,8.887,0,0,1-2.9-1.677l-3.881,1.314-1.044-1.807L24.883,49.83l3.083-2.7a8.871,8.871,0,0,1,0-3.349l-3.083-2.7,1.044-1.812,1.044-1.807,3.881,1.319a8.887,8.887,0,0,1,2.9-1.677Zm2.088,8.1a4.27,4.27,0,1,1-4.272,4.267,4.27,4.27,0,0,1,4.272-4.267Z" fill="#fff" fill-rule="evenodd"></path></g></g><g id="Component_75_1" data-name="Component 75 – 1" transform="translate(1106 1535.75)"><rect id="Rectangle_18265" data-name="Rectangle 18265" width="262" height="262" rx="22" fill="#37caec"></rect><g id="Group-3" data-name="Group"><text id="Data_" data-name="Data " transform="translate(104.492 179.25)" fill="#f8f8f8" font-size="24" font-family="AvenirNext-DemiBold, Avenir Next" font-weight="300" letter-spacing="0.005em"><tspan x="0" y="0">Data </tspan></text><text id="Collection" transform="translate(74.156 214.25)" fill="#f8f8f8" font-size="24" font-family="AvenirNext-DemiBold, Avenir Next" font-weight="300" letter-spacing="0.005em"><tspan x="0" y="0">Collection</tspan></text></g><g id="Group_5" data-name="Group 5" transform="translate(15786 22006.172)"><path id="Path_31801" data-name="Path 31801" d="M8,55.808l26.142,7.624V56.709L8,49.083Z" transform="translate(-15690.181 -21935.568)" fill="#fff"></path><path id="Path_31802" data-name="Path 31802" d="M59.142,49.083,33,56.709v6.724l26.142-7.624Z" transform="translate(-15686.765 -21935.568)" fill="#fff"></path><path id="Path_31803" data-name="Path 31803" d="M13,7.546h4.546L13,3Z" transform="translate(-15689.497 -21941.863)" fill="#fff"></path><path id="Path_31804" data-name="Path 31804" d="M57,7.546h4.546L57,3Z" transform="translate(-15683.486 -21941.863)" fill="#fff"></path><path id="Path_31805" data-name="Path 31805" d="M65.376,9.956H57.419V2H47.19V27.006h6.82v2.273a3.414,3.414,0,0,1-3.41,3.41H47.19a5.69,5.69,0,0,0-5.683,5.683v1.8l-2.607-2.6-1.607,1.607,5.35,5.35,5.35-5.35-1.607-1.607L43.78,40.175v-1.8a3.414,3.414,0,0,1,3.41-3.41H50.6a5.69,5.69,0,0,0,5.683-5.683V27.006h9.093ZM50.6,7.683h4.546V9.956H50.6ZM61.966,23.6H50.6V21.323H61.966Zm0-4.546H50.6V16.776H61.966Zm0-4.546H50.6V12.23H61.966Z" transform="translate(-15686.179 -21942)" fill="#fff"></path><path id="Path_31806" data-name="Path 31806" d="M39.022,43.7l1.607,1.607-5.35,5.35-5.35-5.35L31.536,43.7l2.606,2.606V40.292L8,47.916l27.279,7.956,27.279-7.956L36.416,40.292v6.017Z" transform="translate(-15690.181 -21936.768)" fill="#fff"></path><path id="Path_31807" data-name="Path 31807" d="M33.093,45.192l1.137.332V27.006h7.956V9.956H34.23V2H24V27.006h7.956V45.523ZM34.23,23.6H31.956V21.323H34.23Zm4.546,0H36.5V21.323h2.273ZM27.41,7.683h4.546V9.956H27.41Zm0,4.546H38.776V14.5H27.41Zm0,4.546H38.776v2.273H27.41Zm2.273,6.82H27.41V21.323h2.273Z" transform="translate(-15687.994 -21942)" fill="#fff"></path><path id="Path_31808" data-name="Path 31808" d="M11.093,29.279a5.69,5.69,0,0,0,5.683,5.683h3.41a3.414,3.414,0,0,1,3.41,3.41v1.8l-2.606-2.6-1.607,1.607,5.35,5.35,5.35-5.35-1.607-1.607L25.87,40.174v-1.8a5.69,5.69,0,0,0-5.683-5.683h-3.41a3.414,3.414,0,0,1-3.41-3.41V27.006h6.82V9.956H12.23V2H2V27.006h9.093ZM5.41,7.683H9.956V9.956H5.41Zm0,4.546H16.776V14.5H5.41Zm0,4.546H16.776v2.273H5.41Zm0,4.546H16.776V23.6H5.41Z" transform="translate(-15691 -21942)" fill="#fff"></path><path id="Path_31809" data-name="Path 31809" d="M35,7.546h4.546L35,3Z" transform="translate(-15686.491 -21941.863)" fill="#fff"></path></g></g><g id="Component_76_1" data-name="Component 76 – 1" transform="translate(1106 1814.75)"><rect id="Rectangle_18266" data-name="Rectangle 18266" width="262" height="262" rx="22" fill="#9024aa"></rect><g id="Group-4" data-name="Group"><text id="Identity_" data-name="Identity " transform="translate(88.184 176.25)" fill="#f8f8f8" font-size="24" font-family="AvenirNext-DemiBold, Avenir Next" font-weight="300" letter-spacing="0.005em"><tspan x="0" y="0">Identity </tspan></text><text id="_Enrol_Verify_" data-name="(Enrol &amp; Verify)" transform="translate(46.664 211.25)" fill="#f8f8f8" font-size="24" font-family="AvenirNext-DemiBold, Avenir Next" font-weight="300" letter-spacing="0.005em"><tspan x="0" y="0">(Enrol &amp; Verify)</tspan></text></g><g id="Group_6" data-name="Group 6" transform="translate(-1089.789 -1792.75)"><path id="Path_31810" data-name="Path 31810" d="M112.018,96.4a1.23,1.23,0,1,0-2.459,0A25.091,25.091,0,0,1,88.29,121.319a1.232,1.232,0,0,0,.188,2.448,1.146,1.146,0,0,0,.192-.018A27.536,27.536,0,0,0,112.018,96.4Z" transform="translate(1109.691 1780.293)" fill="#fff"></path><path id="Path_31811" data-name="Path 31811" d="M112.692,80.834A27.723,27.723,0,0,0,85,108.526a1.23,1.23,0,0,0,2.461,0,25.233,25.233,0,1,1,50.465,0,51.348,51.348,0,0,1-2.715,16.53,1.231,1.231,0,1,0,2.332.788,53.871,53.871,0,0,0,2.841-17.319,27.726,27.726,0,0,0-27.693-27.691Z" transform="translate(1107.788 1768.166)" fill="#fff"></path><path id="Path_31812" data-name="Path 31812" d="M118.255,98.823a6.523,6.523,0,0,0-13.045,0,19.861,19.861,0,0,1-17.97,19.84,1.231,1.231,0,1,0,.242,2.45,22.314,22.314,0,0,0,20.187-22.288,4.063,4.063,0,0,1,8.127,0A30.76,30.76,0,0,1,92.042,128.6a1.231,1.231,0,0,0,.271,2.431,1.091,1.091,0,0,0,.275-.035,33.235,33.235,0,0,0,25.667-32.173Z" transform="translate(1108.745 1777.869)" fill="#fff"></path><path id="Path_31813" data-name="Path 31813" d="M103.235,117.265c-.039-.044-.083-.094-.12-.142a1.231,1.231,0,0,0-1.682-.3c-1.115.746-2.2,1.41-3.3,2.02A1.23,1.23,0,0,0,99.324,121c.864-.476,1.711-.98,2.568-1.529.447.5.923,1.008,1.421,1.5a1.23,1.23,0,0,0,1.741-1.737C104.4,118.587,103.8,117.931,103.235,117.265Z" transform="translate(1118.359 1798.439)" fill="#fff"></path><path id="Path_31814" data-name="Path 31814" d="M113.864,113.776a22.627,22.627,0,0,1-1.953-5.5,1.234,1.234,0,0,0-2.184-.487,35.633,35.633,0,0,1-17.953,12.569,1.229,1.229,0,1,0,.726,2.348,38,38,0,0,0,17.643-11.524,25.21,25.21,0,0,0,10.106,13.331,1.252,1.252,0,0,0,.685.2,1.23,1.23,0,0,0,.648-2.274,23.042,23.042,0,0,1-7.718-8.663Z" transform="translate(1112.785 1790.566)" fill="#fff"></path><path id="Path_31815" data-name="Path 31815" d="M133.7,131.931a12.168,12.168,0,0,1-6.386-13.889,43.37,43.37,0,0,0,2.437-14.367,17.107,17.107,0,0,0-34.214,0,9.368,9.368,0,0,1-9.266,9.347,1.232,1.232,0,1,0,.009,2.463h.011A11.84,11.84,0,0,0,98,103.676a14.65,14.65,0,1,1,29.3,0,40.9,40.9,0,0,1-2.315,13.6c-.011.033-.022.066-.031.1a14.61,14.61,0,0,0,7.656,16.756,1.211,1.211,0,0,0,.548.127,1.229,1.229,0,0,0,.55-2.33Z" transform="translate(1107.832 1773.02)" fill="#fff"></path><path id="Path_31816" data-name="Path 31816" d="M130.231,133.817a17.458,17.458,0,0,1-8.3-19.711,38.287,38.287,0,0,0,2.221-12.857,11.815,11.815,0,1,0-23.63,0A14.615,14.615,0,0,1,86.58,115.88a1.229,1.229,0,1,0,.114,2.455,17.071,17.071,0,0,0,16.294-17.084,9.355,9.355,0,0,1,18.71,0,35.856,35.856,0,0,1-2.1,12.1.776.776,0,0,0-.042.159,19.909,19.909,0,0,0,9.469,22.453,1.23,1.23,0,1,0,1.209-2.143Z" transform="translate(1108.134 1775.447)" fill="#fff"></path><path id="Path_31817" data-name="Path 31817" d="M136.18,129.669a6.9,6.9,0,0,1-3.936-6.209,6.634,6.634,0,0,1,.175-1.521l.02-.05c.007-.02.015-.037.022-.054a48.758,48.758,0,0,0,2.577-14.6c.015-.373.02-.75.02-1.132a22.4,22.4,0,1,0-44.8,0,4.079,4.079,0,0,1-4.006,4.062,1.23,1.23,0,0,0,.033,2.459,6.547,6.547,0,0,0,6.432-6.521,19.941,19.941,0,1,1,39.882,0c0,.351,0,.694-.018,1.06a45.089,45.089,0,0,1-.731,7.246,44.309,44.309,0,0,1-1.71,6.605c-.026.063-.046.124-.068.19-.011.035-.022.065-.03.1a9.24,9.24,0,0,0-.26,2.166,9.372,9.372,0,0,0,5.345,8.428,1.233,1.233,0,0,0,1.054-2.228Z" transform="translate(1107.821 1770.594)" fill="#fff"></path><path id="Path_31818" data-name="Path 31818" d="M110.5,117.3a28.286,28.286,0,0,1-2.939-4.148,1.232,1.232,0,0,0-1.868-.316,41.111,41.111,0,0,1-11.173,6.886,1.23,1.23,0,1,0,.869,2.3,43.52,43.52,0,0,0,10.8-6.4,31.145,31.145,0,0,0,2.435,3.27,30.427,30.427,0,0,0,4.159,4.038,1.23,1.23,0,1,0,1.538-1.92,27.235,27.235,0,0,1-3.821-3.71Z" transform="translate(1115.142 1794.992)" fill="#fff"></path></g></g><rect id="Rectangle_4504" data-name="Rectangle 4504" width="260" height="182" rx="22" transform="translate(1089.5 2167) rotate(180)" fill="url(#linear-gradient)"></rect><rect id="Rectangle_4505" data-name="Rectangle 4505" width="260" height="183" rx="22" transform="translate(1642 2167) rotate(180)" fill="url(#linear-gradient)"></rect><g id="Component_71_1" data-name="Component 71 – 1" transform="translate(830 1430)"><rect id="Rectangle_18257" data-name="Rectangle 18257" width="261" height="261" rx="22" fill="#3aa3ff" opacity="0.995"></rect><g id="Group-5" data-name="Group"><text id="Customer_" data-name="Customer " transform="translate(77.001 179)" fill="#f8f8f8" font-size="24" font-family="AvenirNext-DemiBold, Avenir Next" font-weight="300" letter-spacing="0.005em"><tspan x="0" y="0">Customer </tspan></text><text id="Onboarding" transform="translate(62.625 214)" fill="#f8f8f8" font-size="24" font-family="AvenirNext-DemiBold, Avenir Next" font-weight="300" letter-spacing="0.005em"><tspan x="0" y="0">Onboarding</tspan></text></g><g id="Group_1" data-name="Group 1" transform="translate(15914.092 21574.357)"><path id="Path_31780" data-name="Path 31780" d="M3.412,51.1,14.69,54.982a1.172,1.172,0,0,0,.555.092,1.336,1.336,0,0,0,.647-.185,1.653,1.653,0,0,0,.832-.924L25.69,27.9l.647.277a8.8,8.8,0,0,0,6.84-.37l1.109-.555a6.129,6.129,0,0,1,4.437-.277l20.8,7.21a4.148,4.148,0,0,1-1.479,2.5c-.924.647-2.219.647-3.975,0l-9.244-3.143a1.61,1.61,0,0,0-1.294.092,1.431,1.431,0,0,0-.74,1.017c0,.092-1.294,4.9-5.361,7.118-2.588,1.387-5.824,1.479-9.614.185A1.608,1.608,0,1,0,26.8,45a18.559,18.559,0,0,0,6.1,1.109,12.064,12.064,0,0,0,6.009-1.479,14.556,14.556,0,0,0,6.378-7.488l7.765,2.681c2.773.924,4.992.832,6.84-.462,2.866-1.941,2.958-5.916,2.958-6.1a1.709,1.709,0,0,0-1.017-1.571l-22-7.58a8.813,8.813,0,0,0-6.84.462l-1.109.555a6.129,6.129,0,0,1-4.437.277L25.6,24.755c-.092-.092-.185-.092-.277-.185L14.042,20.688a1.8,1.8,0,0,0-1.2.092,1.653,1.653,0,0,0-.832.924L2.4,49.067a1.8,1.8,0,0,0,.092,1.2,2.023,2.023,0,0,0,.92.833Zm11-27.177,8.32,2.866-8.5,24.681L5.908,48.6ZM13.026,47.588a1.959,1.959,0,1,1-1.2-2.5,1.889,1.889,0,0,1,1.2,2.5Zm63.136,5.639-3.882,3.6a50.885,50.885,0,0,1-11.74,8.042L40.018,74.95a2.021,2.021,0,0,1-1.479.092,2.159,2.159,0,0,1-1.109-.924,2.021,2.021,0,0,1-.092-1.479,2.159,2.159,0,0,1,.924-1.109l11.462-5.639a1.592,1.592,0,1,0-1.387-2.866L37.152,68.572h0l-5.639,2.773a1.86,1.86,0,1,1-1.664-3.328l1.2-.555,3.05-1.479h0l12.294-6.1a1.592,1.592,0,1,0-1.387-2.866L29.757,64.5l-1.2.555h0l-2.034,1.017a2.021,2.021,0,0,1-1.479.092,2.159,2.159,0,0,1-1.109-.924,2.021,2.021,0,0,1-.092-1.479,2.159,2.159,0,0,1,.924-1.109L26.8,61.639h0l14.79-7.21a1.593,1.593,0,0,0-1.39-2.866l-9.521,4.622h0L25.41,58.773a2.021,2.021,0,0,1-1.479.092,2.159,2.159,0,0,1-1.109-.924,2.021,2.021,0,0,1-.092-1.479,2.159,2.159,0,0,1,.924-1.109l7.857-3.79a1.632,1.632,0,0,0,.74-2.126,1.554,1.554,0,0,0-2.126-.74l-7.857,3.79a4.954,4.954,0,0,0-2.588,2.866,4.746,4.746,0,0,0,.277,3.882,5.093,5.093,0,0,0,1.571,1.849,4.688,4.688,0,0,0-.832,1.479,4.746,4.746,0,0,0,.277,3.882,4.954,4.954,0,0,0,2.866,2.588,5.234,5.234,0,0,0,1.664.277h0a5.318,5.318,0,0,0,.462,2.4A5.1,5.1,0,0,0,30.5,74.58a4.923,4.923,0,0,0,2.219-.555l1.2-.555a4.208,4.208,0,0,0,.462,1.849,4.954,4.954,0,0,0,2.866,2.588,5.234,5.234,0,0,0,1.664.277,4.923,4.923,0,0,0,2.219-.555L61.648,67.555a52.287,52.287,0,0,0,12.479-8.5L78.75,54.8l10.538-5.177a1.632,1.632,0,0,0,.74-2.126L77.456,21.428a1.632,1.632,0,0,0-2.126-.74L64.606,25.957a1.653,1.653,0,0,0-.832.924,1.8,1.8,0,0,0,.092,1.2ZM75.329,24.2,86.792,47.588l-7.95,3.882L67.38,28.083Zm4.437,23.3a1.86,1.86,0,1,1,2.5.832,1.78,1.78,0,0,1-2.5-.832Z" transform="translate(-15830 -21527.543)" fill="#fff"></path></g></g><g id="Component_72_1" data-name="Component 72 – 1" transform="translate(830 1707.75)"><rect id="Rectangle_18258" data-name="Rectangle 18258" width="261" height="261" rx="22" fill="#f6ac23"></rect><g id="Group-6" data-name="Group"><text id="Process_" data-name="Process " transform="translate(88 174.25)" fill="#f8f8f8" font-size="24" font-family="AvenirNext-DemiBold, Avenir Next" font-weight="300" letter-spacing="0.005em"><tspan x="0" y="0">Process </tspan></text><text id="Automation" transform="translate(63.844 209.25)" fill="#f8f8f8" font-size="24" font-family="AvenirNext-DemiBold, Avenir Next" font-weight="300" letter-spacing="0.005em"><tspan x="0" y="0">Automation</tspan></text></g><g id="Group_2" data-name="Group 2" transform="translate(13385 22059.25)"><path id="Path_31781" data-name="Path 31781" d="M2.11,51.615a1.37,1.37,0,0,0,1.077,1.231l4.777,1.031a21.658,21.658,0,0,0,.642,2.4L4.99,59.555a1.37,1.37,0,0,0-.317,1.6,27.412,27.412,0,0,0,2.188,3.818,1.371,1.371,0,0,0,1.548.525L13.052,64a21.965,21.965,0,0,0,1.768,1.768l-1.5,4.643a1.371,1.371,0,0,0,.525,1.548,27.412,27.412,0,0,0,3.818,2.188,1.372,1.372,0,0,0,1.6-.317l3.276-3.616a22.068,22.068,0,0,0,2.4.642l1.031,4.777a1.373,1.373,0,0,0,1.23,1.077c.729.058,1.46.11,2.2.11s1.475-.052,2.2-.11a1.37,1.37,0,0,0,1.231-1.077l1.031-4.777a21.681,21.681,0,0,0,2.4-.642l3.276,3.616a1.369,1.369,0,0,0,1.605.317,27.549,27.549,0,0,0,3.818-2.188,1.371,1.371,0,0,0,.525-1.548l-1.5-4.643A22.176,22.176,0,0,0,45.759,64L50.4,65.5a1.369,1.369,0,0,0,1.548-.525,27.412,27.412,0,0,0,2.188-3.818,1.37,1.37,0,0,0-.317-1.6L50.229,56.28a22.069,22.069,0,0,0,.642-2.4l4.777-1.031a1.373,1.373,0,0,0,1.077-1.23c.056-.731.108-1.461.108-2.206s-.052-1.475-.11-2.2a1.37,1.37,0,0,0-1.077-1.231l-4.777-1.031a21.681,21.681,0,0,0-.642-2.4l3.616-3.276a1.37,1.37,0,0,0,.317-1.6,27.551,27.551,0,0,0-2.188-3.818,1.369,1.369,0,0,0-1.548-.525l-4.643,1.5a21.963,21.963,0,0,0-1.768-1.768l1.5-4.643a1.371,1.371,0,0,0-.525-1.548A27.411,27.411,0,0,0,41.17,24.68a1.368,1.368,0,0,0-1.6.317l-3.28,3.6a22.069,22.069,0,0,0-2.4-.642L32.851,23.18a1.373,1.373,0,0,0-1.23-1.077,27.861,27.861,0,0,0-4.41,0A1.37,1.37,0,0,0,25.98,23.18l-1.031,4.777a21.658,21.658,0,0,0-2.4.642l-3.276-3.616a1.37,1.37,0,0,0-1.6-.317,27.41,27.41,0,0,0-3.818,2.188,1.371,1.371,0,0,0-.525,1.548l1.5,4.643a21.964,21.964,0,0,0-1.768,1.768l-4.642-1.5a1.368,1.368,0,0,0-1.548.525A27.412,27.412,0,0,0,4.673,37.66a1.37,1.37,0,0,0,.317,1.605l3.616,3.276a22.068,22.068,0,0,0-.642,2.4L3.187,45.976a1.373,1.373,0,0,0-1.077,1.23c-.058.731-.11,1.461-.11,2.206S2.052,50.886,2.11,51.615Zm2.66-3.176,4.664-1.008a1.371,1.371,0,0,0,1.064-1.12,19.111,19.111,0,0,1,.986-3.689,1.369,1.369,0,0,0-.362-1.5L7.6,37.93c.307-.588.628-1.152.96-1.685L13.078,37.7a1.376,1.376,0,0,0,1.482-.436,19.275,19.275,0,0,1,2.712-2.712,1.369,1.369,0,0,0,.436-1.482l-1.456-4.518q.8-.5,1.685-.96l3.191,3.523a1.373,1.373,0,0,0,1.5.362,19.019,19.019,0,0,1,3.688-.986,1.371,1.371,0,0,0,1.12-1.064l1.006-4.664a18.057,18.057,0,0,1,1.945,0L31.4,29.43a1.371,1.371,0,0,0,1.12,1.064,19.11,19.11,0,0,1,3.689.986,1.369,1.369,0,0,0,1.5-.362L40.9,27.6c.588.307,1.152.628,1.685.96l-1.456,4.518a1.372,1.372,0,0,0,.436,1.482,19.275,19.275,0,0,1,2.712,2.712,1.366,1.366,0,0,0,1.482.436l4.518-1.456q.5.8.96,1.683L47.71,41.122a1.371,1.371,0,0,0-.362,1.5,19.018,19.018,0,0,1,.986,3.688A1.371,1.371,0,0,0,49.4,47.43l4.664,1.006c.018.322.03.647.03.973s-.011.651-.029.972L49.4,51.39a1.371,1.371,0,0,0-1.064,1.12,19.11,19.11,0,0,1-.986,3.69,1.369,1.369,0,0,0,.362,1.5l3.522,3.191q-.46.882-.96,1.685L45.756,61.12a1.365,1.365,0,0,0-1.482.436,19.347,19.347,0,0,1-2.712,2.712,1.37,1.37,0,0,0-.436,1.48l1.456,4.518q-.8.5-1.683.96L37.707,67.7a1.376,1.376,0,0,0-1.5-.362,19.018,19.018,0,0,1-3.688.986,1.371,1.371,0,0,0-1.12,1.064l-1.006,4.664a18.055,18.055,0,0,1-1.945,0L27.44,69.388a1.371,1.371,0,0,0-1.12-1.064,19.112,19.112,0,0,1-3.689-.986,1.368,1.368,0,0,0-1.5.362L17.94,71.222c-.588-.307-1.152-.628-1.685-.96l1.456-4.518a1.372,1.372,0,0,0-.436-1.482,19.274,19.274,0,0,1-2.712-2.712,1.369,1.369,0,0,0-1.482-.436l-4.52,1.46q-.5-.8-.96-1.685L11.124,57.7a1.371,1.371,0,0,0,.362-1.5,19.018,19.018,0,0,1-.986-3.688,1.371,1.371,0,0,0-1.064-1.12l-4.666-1c-.016-.322-.029-.647-.029-.973S4.753,48.76,4.77,48.439Z" transform="translate(-13298 -22005.578)" fill="#fff"></path><path id="Path_31782" data-name="Path 31782" d="M62.829,21.514a1.37,1.37,0,0,0,.95-1.15A16.123,16.123,0,0,0,63.9,18.45a16.4,16.4,0,0,0-.119-1.914,1.37,1.37,0,0,0-.95-1.15l-3.8-1.194q-.171-.467-.378-.916L60.5,9.746a1.374,1.374,0,0,0-.14-1.485,16.6,16.6,0,0,0-2.713-2.713,1.374,1.374,0,0,0-1.485-.141L52.624,7.25q-.448-.206-.916-.377l-1.194-3.8a1.37,1.37,0,0,0-1.15-.95,15.165,15.165,0,0,0-3.829,0,1.37,1.37,0,0,0-1.15.95l-1.194,3.8q-.467.171-.916.378l-3.53-1.842a1.377,1.377,0,0,0-1.485.14,16.6,16.6,0,0,0-2.713,2.713,1.371,1.371,0,0,0-.141,1.485l1.841,3.53q-.206.448-.377.916l-3.8,1.194a1.37,1.37,0,0,0-.95,1.15,15.413,15.413,0,0,0,0,3.827,1.37,1.37,0,0,0,.95,1.15l3.8,1.194q.171.467.378.916l-1.842,3.53a1.374,1.374,0,0,0,.14,1.485,16.6,16.6,0,0,0,2.713,2.713,1.374,1.374,0,0,0,1.485.141l3.53-1.841q.448.206.916.377l1.194,3.8a1.37,1.37,0,0,0,1.15.95,16.2,16.2,0,0,0,1.916.121,16.4,16.4,0,0,0,1.914-.119,1.37,1.37,0,0,0,1.15-.95l1.194-3.8q.467-.171.916-.378l3.53,1.842a1.371,1.371,0,0,0,1.485-.14,16.6,16.6,0,0,0,2.713-2.713,1.371,1.371,0,0,0,.141-1.485l-1.842-3.53q.208-.448.378-.916ZM57.538,20.3a1.375,1.375,0,0,0-.9.914A9.655,9.655,0,0,1,55.9,22.99a1.367,1.367,0,0,0-.008,1.283l1.74,3.334A13.992,13.992,0,0,1,56.6,28.635L53.273,26.9a1.371,1.371,0,0,0-1.283.008,9.655,9.655,0,0,1-1.774.732,1.375,1.375,0,0,0-.914.9l-1.13,3.6a11.55,11.55,0,0,1-1.445,0l-1.13-3.6a1.375,1.375,0,0,0-.914-.9,9.525,9.525,0,0,1-1.772-.732,1.37,1.37,0,0,0-1.284-.008l-3.334,1.74a13.99,13.99,0,0,1-1.028-1.028L39,24.273a1.371,1.371,0,0,0,0-1.283,9.656,9.656,0,0,1-.732-1.774,1.375,1.375,0,0,0-.9-.914l-3.6-1.13c-.016-.251-.023-.491-.023-.722s.007-.472.023-.722l3.6-1.13a1.375,1.375,0,0,0,.9-.914A9.526,9.526,0,0,1,39,13.911a1.37,1.37,0,0,0,0-1.284L37.26,9.293a13.989,13.989,0,0,1,1.028-1.028L41.627,10a1.375,1.375,0,0,0,1.283,0,9.655,9.655,0,0,1,1.774-.732,1.375,1.375,0,0,0,.914-.9l1.13-3.6a11.548,11.548,0,0,1,1.445,0l1.13,3.6a1.375,1.375,0,0,0,.914.9A9.526,9.526,0,0,1,51.989,10a1.37,1.37,0,0,0,1.284,0l3.334-1.74a13.993,13.993,0,0,1,1.028,1.028L55.9,12.627a1.371,1.371,0,0,0,0,1.283,9.655,9.655,0,0,1,.732,1.774,1.375,1.375,0,0,0,.9.914l3.6,1.13c.016.251.023.491.023.722s-.007.472-.023.722Z" transform="translate(-13287.246 -22013)" fill="#fff"></path><path id="Path_31783" data-name="Path 31783" d="M68.4,37.917l-2.355-.836a11.11,11.11,0,0,0-.462-1.12l1.071-2.255a1.365,1.365,0,0,0-.159-1.431,13.8,13.8,0,0,0-2.356-2.358,1.371,1.371,0,0,0-1.433-.159L60.45,30.829a10.949,10.949,0,0,0-1.119-.461L58.5,28.013a1.374,1.374,0,0,0-1.127-.9,12.632,12.632,0,0,0-3.327,0,1.369,1.369,0,0,0-1.127.9l-.836,2.355a11.11,11.11,0,0,0-1.12.462l-2.255-1.071a1.372,1.372,0,0,0-1.431.159,13.8,13.8,0,0,0-2.358,2.356,1.373,1.373,0,0,0-.159,1.433l1.071,2.256a10.944,10.944,0,0,0-.461,1.119l-2.355.838a1.374,1.374,0,0,0-.9,1.127A13.433,13.433,0,0,0,42,40.708a13.742,13.742,0,0,0,.11,1.663,1.369,1.369,0,0,0,.9,1.127l2.355.836a11.109,11.109,0,0,0,.462,1.12l-1.071,2.255a1.365,1.365,0,0,0,.159,1.431,13.8,13.8,0,0,0,2.359,2.36,1.373,1.373,0,0,0,1.433.159l2.256-1.071a10.951,10.951,0,0,0,1.119.461L52.92,53.4a1.374,1.374,0,0,0,1.127.9,13.239,13.239,0,0,0,1.663.112,13.74,13.74,0,0,0,1.663-.11,1.369,1.369,0,0,0,1.127-.9l.836-2.355a11.111,11.111,0,0,0,1.12-.462l2.255,1.071a1.362,1.362,0,0,0,1.429-.16,13.8,13.8,0,0,0,2.36-2.357,1.373,1.373,0,0,0,.159-1.433l-1.071-2.256a10.949,10.949,0,0,0,.461-1.119L68.4,43.5a1.374,1.374,0,0,0,.9-1.127,13.241,13.241,0,0,0,.112-1.663,13.744,13.744,0,0,0-.11-1.663A1.371,1.371,0,0,0,68.4,37.917Zm-1.744,3.291-2.173.772a1.371,1.371,0,0,0-.862.925,8.157,8.157,0,0,1-.761,1.847,1.374,1.374,0,0,0-.045,1.263l.984,2.074q-.341.374-.714.714l-2.074-.984a1.374,1.374,0,0,0-1.263.045,8.161,8.161,0,0,1-1.845.761,1.376,1.376,0,0,0-.927.862L56.21,51.66a9.373,9.373,0,0,1-1,0l-.772-2.173a1.371,1.371,0,0,0-.925-.862,8.157,8.157,0,0,1-1.847-.761,1.382,1.382,0,0,0-1.263-.045l-2.074.984q-.374-.341-.714-.714l.984-2.074a1.37,1.37,0,0,0-.045-1.263,8.162,8.162,0,0,1-.761-1.845,1.376,1.376,0,0,0-.862-.927l-2.173-.772c-.011-.166-.016-.332-.016-.5s.005-.336.014-.5l2.173-.773a1.366,1.366,0,0,0,.861-.925,8.2,8.2,0,0,1,.762-1.847A1.374,1.374,0,0,0,48.6,35.4l-.984-2.074q.341-.374.714-.714l2.07.988a1.366,1.366,0,0,0,1.263-.045,8.162,8.162,0,0,1,1.845-.761,1.376,1.376,0,0,0,.927-.862l.772-2.173a9.372,9.372,0,0,1,1,0l.772,2.173a1.371,1.371,0,0,0,.925.862,8.157,8.157,0,0,1,1.847.761,1.366,1.366,0,0,0,1.263.045l2.074-.984q.374.341.714.714l-.985,2.07a1.37,1.37,0,0,0,.045,1.263,8.162,8.162,0,0,1,.761,1.845,1.376,1.376,0,0,0,.862.927l2.173.772c.011.167.016.333.016.5s0,.336-.013.5Z" transform="translate(-13283.167 -22003.729)" fill="#fff"></path><path id="Path_31784" data-name="Path 31784" d="M26.079,61.158A15.079,15.079,0,1,0,11,46.079,15.079,15.079,0,0,0,26.079,61.158Zm0-27.417A12.337,12.337,0,1,1,13.742,46.078,12.337,12.337,0,0,1,26.079,33.741Z" transform="translate(-13294.662 -22002.246)" fill="#fff"></path><path id="Path_31785" data-name="Path 31785" d="M2.022,29.833,4.128,31.59A32.833,32.833,0,0,1,29.409,19.746c.7,0,1.394.04,2.091.084l-1.69,1.688,1.938,1.938,4.112-4.112a1.369,1.369,0,0,0,0-1.938l-4.112-4.112L29.81,15.231l1.863,1.863c-.754-.048-1.509-.09-2.265-.09A35.569,35.569,0,0,0,2.022,29.833Z" transform="translate(-13297.992 -22008.813)" fill="#fff"></path><path id="Path_31786" data-name="Path 31786" d="M44.854,9a6.854,6.854,0,1,0,6.854,6.854A6.854,6.854,0,0,0,44.854,9Zm0,10.967a4.112,4.112,0,1,1,4.112-4.112A4.112,4.112,0,0,1,44.854,19.967Z" transform="translate(-13284.65 -22010.404)" fill="#fff"></path><path id="Path_31787" data-name="Path 31787" d="M53.483,33a5.483,5.483,0,1,0,5.483,5.483A5.483,5.483,0,0,0,53.483,33Zm0,8.225a2.742,2.742,0,1,1,2.742-2.742A2.742,2.742,0,0,1,53.483,41.225Z" transform="translate(-13280.941 -22001.504)" fill="#fff"></path><path id="Path_31788" data-name="Path 31788" d="M63.857,5.4,57,4.027A1.368,1.368,0,0,0,55.39,5.1l-1.371,6.854,2.688.539.739-3.69a20.569,20.569,0,0,1,2.03,8.9,20.343,20.343,0,0,1-4.51,12.852l2.14,1.715a23.322,23.322,0,0,0,2.7-24.89l3.509.7Z" transform="translate(-13278.71 -22012.258)" fill="#fff"></path></g></g></g></g></svg> 